<svg width="230" height="124" viewBox="0 0 230 124" fill="none" xmlns="http://www.w3.org/2000/svg">
<path d="M97.9869 71C103.515 71 106.45 65.8917 107.313 62.8739C107.327 62.8263 107.34 62.7776 107.352 62.728C109.363 54.1103 112.566 40.4516 114.939 30.5165H123.431C125.027 30.5165 126.322 29.1775 126.322 27.5252C126.322 25.8729 125.027 24.5339 123.431 24.5339H116.376C117.136 21.4036 117.692 19.1741 117.911 18.4133L118.154 17.5616C119.05 14.3969 121.149 6.98404 124.395 6.98404C127.405 6.98404 127.853 11.7799 127.874 12.0118C128.002 13.6538 129.386 14.894 130.977 14.7521C132.569 14.6263 133.761 13.1867 133.638 11.5402C133.368 7.8942 131.086 1 124.394 1C116.816 1 113.972 11.0486 112.605 15.8788L112.372 16.6937C112.095 17.6495 111.366 20.5946 110.416 24.5339H100.3C98.7028 24.5339 97.4086 25.8729 97.4086 27.5252C97.4086 29.1775 98.7028 30.5165 100.3 30.5165H108.983C106.015 42.9738 102.178 59.4052 101.756 61.2142C101.599 61.6882 100.413 65.0169 97.9883 65.0169C94.2853 65.0169 92.6821 59.6395 92.6693 59.5992C92.225 58.0132 90.6256 57.0952 89.0879 57.5579C87.5545 58.0181 86.6705 59.6768 87.1149 61.2638C88.1266 64.8794 91.5537 71 97.9869 71Z" fill="#93C899" stroke="black"/>
<path d="M140.864 63.286C142.568 63.286 144 62.034 144 60.0408C144 59.1149 143.642 58.2794 142.88 57.3521L136.877 50.2133L142.702 43.1668C143.239 42.4713 143.642 41.7296 143.642 40.7561C143.642 38.9928 142.252 37.6956 140.46 37.6956C139.251 37.6956 138.311 38.4834 137.503 39.5051L132.978 45.6222L128.543 39.5041C127.645 38.3464 126.706 37.6956 125.362 37.6956C123.657 37.6956 122.225 38.9486 122.225 40.9418C122.225 41.8676 122.584 42.7031 123.344 43.629L128.946 50.3051L122.806 57.8148C122.224 58.5103 121.866 59.252 121.866 60.2255C121.866 61.9883 123.255 63.285 125.047 63.285C126.257 63.285 127.197 62.4972 128.004 61.4765L132.841 54.8947L137.68 61.4765C138.579 62.6372 139.52 63.286 140.864 63.286Z" fill="#93C899" stroke="black"/>
<mask id="path-3-outside-1_3_15" maskUnits="userSpaceOnUse" x="1" y="82" width="229" height="42" fill="black">
<rect fill="white" x="1" y="82" width="229" height="42"/>
<path d="M10.56 87.28C11.04 88.16 11.5867 89.2533 12.2 90.56C12.84 91.84 13.4933 93.24 14.16 94.76C14.8533 96.2533 15.5333 97.7867 16.2 99.36C16.8667 100.933 17.4933 102.413 18.08 103.8C18.6667 102.413 19.2933 100.933 19.96 99.36C20.6267 97.7867 21.2933 96.2533 21.96 94.76C22.6533 93.24 23.3067 91.84 23.92 90.56C24.56 89.2533 25.12 88.16 25.6 87.28H31.28C31.5467 89.12 31.7867 91.1867 32 93.48C32.24 95.7467 32.44 98.12 32.6 100.6C32.7867 103.053 32.9467 105.52 33.08 108C33.24 110.48 33.3733 112.813 33.48 115H27.4C27.32 112.307 27.2133 109.373 27.08 106.2C26.9467 103.027 26.7467 99.8267 26.48 96.6C26 97.72 25.4667 98.96 24.88 100.32C24.2933 101.68 23.7067 103.04 23.12 104.4C22.56 105.76 22.0133 107.067 21.48 108.32C20.9467 109.547 20.4933 110.6 20.12 111.48H15.76C15.3867 110.6 14.9333 109.547 14.4 108.32C13.8667 107.067 13.3067 105.76 12.72 104.4C12.16 103.04 11.5867 101.68 11 100.32C10.4133 98.96 9.88 97.72 9.4 96.6C9.13333 99.8267 8.93333 103.027 8.8 106.2C8.66667 109.373 8.56 112.307 8.48 115H2.4C2.50667 112.813 2.62667 110.48 2.76 108C2.92 105.52 3.08 103.053 3.24 100.6C3.42667 98.12 3.62667 95.7467 3.84 93.48C4.08 91.1867 4.33333 89.12 4.6 87.28H10.56ZM46.7384 110.84C47.3251 110.84 47.8851 110.827 48.4184 110.8C48.9518 110.773 49.3784 110.733 49.6984 110.68V106.16C49.4584 106.107 49.0984 106.053 48.6184 106C48.1384 105.947 47.6984 105.92 47.2984 105.92C46.7384 105.92 46.2051 105.96 45.6984 106.04C45.2184 106.093 44.7918 106.213 44.4184 106.4C44.0451 106.587 43.7518 106.84 43.5384 107.16C43.3251 107.48 43.2184 107.88 43.2184 108.36C43.2184 109.293 43.5251 109.947 44.1384 110.32C44.7784 110.667 45.6451 110.84 46.7384 110.84ZM46.2584 93.4C48.0184 93.4 49.4851 93.6 50.6584 94C51.8318 94.4 52.7651 94.9733 53.4584 95.72C54.1784 96.4667 54.6851 97.3733 54.9784 98.44C55.2718 99.5067 55.4184 100.693 55.4184 102V114.4C54.5651 114.587 53.3784 114.8 51.8584 115.04C50.3384 115.307 48.4984 115.44 46.3384 115.44C44.9784 115.44 43.7384 115.32 42.6184 115.08C41.5251 114.84 40.5784 114.453 39.7784 113.92C38.9784 113.36 38.3651 112.64 37.9384 111.76C37.5118 110.88 37.2984 109.8 37.2984 108.52C37.2984 107.293 37.5384 106.253 38.0184 105.4C38.5251 104.547 39.1918 103.867 40.0184 103.36C40.8451 102.853 41.7918 102.493 42.8584 102.28C43.9251 102.04 45.0318 101.92 46.1784 101.92C46.9518 101.92 47.6318 101.96 48.2184 102.04C48.8318 102.093 49.3251 102.173 49.6984 102.28V101.72C49.6984 100.707 49.3918 99.8933 48.7784 99.28C48.1651 98.6667 47.0984 98.36 45.5784 98.36C44.5651 98.36 43.5651 98.44 42.5784 98.6C41.5918 98.7333 40.7384 98.9333 40.0184 99.2L39.2584 94.4C39.6051 94.2933 40.0318 94.1867 40.5384 94.08C41.0718 93.9467 41.6451 93.84 42.2584 93.76C42.8718 93.6533 43.5118 93.5733 44.1784 93.52C44.8718 93.44 45.5651 93.4 46.2584 93.4ZM60.6078 88.72L66.5678 87.76V93.96H73.7278V98.92H66.5678V106.32C66.5678 107.573 66.7811 108.573 67.2078 109.32C67.6611 110.067 68.5545 110.44 69.8878 110.44C70.5278 110.44 71.1811 110.387 71.8478 110.28C72.5411 110.147 73.1678 109.973 73.7278 109.76L74.5678 114.4C73.8478 114.693 73.0478 114.947 72.1678 115.16C71.2878 115.373 70.2078 115.48 68.9278 115.48C67.3011 115.48 65.9545 115.267 64.8878 114.84C63.8211 114.387 62.9678 113.773 62.3278 113C61.6878 112.2 61.2345 111.24 60.9678 110.12C60.7278 109 60.6078 107.76 60.6078 106.4V88.72ZM78.5813 115V84.92L84.5413 83.96V94.04C84.9413 93.9067 85.4479 93.7867 86.0612 93.68C86.7013 93.5467 87.3146 93.48 87.9013 93.48C89.6079 93.48 91.0213 93.72 92.1413 94.2C93.2879 94.6533 94.1946 95.3067 94.8613 96.16C95.5546 97.0133 96.0346 98.0267 96.3013 99.2C96.5946 100.373 96.7413 101.68 96.7413 103.12V115H90.7813V103.84C90.7813 101.92 90.5279 100.56 90.0213 99.76C89.5413 98.96 88.6346 98.56 87.3013 98.56C86.7679 98.56 86.2613 98.6133 85.7812 98.72C85.3279 98.8 84.9146 98.8933 84.5413 99V115H78.5813ZM119.256 87.28H125.496V115H119.256V103.24H108.776V115H102.536V87.28H108.776V97.88H119.256V87.28ZM130.511 104.64C130.511 102.773 130.791 101.147 131.351 99.76C131.938 98.3467 132.698 97.1733 133.631 96.24C134.564 95.3067 135.631 94.6 136.831 94.12C138.058 93.64 139.311 93.4 140.591 93.4C143.578 93.4 145.938 94.32 147.671 96.16C149.404 97.9733 150.271 100.653 150.271 104.2C150.271 104.547 150.258 104.933 150.231 105.36C150.204 105.76 150.178 106.12 150.151 106.44H136.631C136.764 107.667 137.338 108.64 138.351 109.36C139.364 110.08 140.724 110.44 142.431 110.44C143.524 110.44 144.591 110.347 145.631 110.16C146.698 109.947 147.564 109.693 148.231 109.4L149.031 114.24C148.711 114.4 148.284 114.56 147.751 114.72C147.218 114.88 146.618 115.013 145.951 115.12C145.311 115.253 144.618 115.36 143.871 115.44C143.124 115.52 142.378 115.56 141.631 115.56C139.738 115.56 138.084 115.28 136.671 114.72C135.284 114.16 134.124 113.4 133.191 112.44C132.284 111.453 131.604 110.293 131.151 108.96C130.724 107.627 130.511 106.187 130.511 104.64ZM144.511 102.36C144.484 101.853 144.391 101.36 144.231 100.88C144.098 100.4 143.871 99.9733 143.551 99.6C143.258 99.2267 142.871 98.92 142.391 98.68C141.938 98.44 141.364 98.32 140.671 98.32C140.004 98.32 139.431 98.44 138.951 98.68C138.471 98.8933 138.071 99.1867 137.751 99.56C137.431 99.9333 137.178 100.373 136.991 100.88C136.831 101.36 136.711 101.853 136.631 102.36H144.511ZM163.27 115.4C161.537 115.373 160.124 115.187 159.03 114.84C157.964 114.493 157.11 114.013 156.47 113.4C155.857 112.76 155.43 112 155.19 111.12C154.977 110.213 154.87 109.2 154.87 108.08V84.92L160.83 83.96V106.88C160.83 107.413 160.87 107.893 160.95 108.32C161.03 108.747 161.177 109.107 161.39 109.4C161.63 109.693 161.964 109.933 162.39 110.12C162.817 110.307 163.39 110.427 164.11 110.48L163.27 115.4ZM181.007 104.64C181.007 102.8 180.593 101.333 179.767 100.24C178.94 99.12 177.713 98.56 176.087 98.56C175.553 98.56 175.06 98.5867 174.607 98.64C174.153 98.6667 173.78 98.7067 173.487 98.76V109.52C173.86 109.76 174.34 109.96 174.927 110.12C175.54 110.28 176.153 110.36 176.767 110.36C179.593 110.36 181.007 108.453 181.007 104.64ZM187.087 104.48C187.087 106.107 186.887 107.587 186.487 108.92C186.087 110.253 185.5 111.4 184.727 112.36C183.953 113.32 182.993 114.067 181.847 114.6C180.7 115.133 179.38 115.4 177.887 115.4C177.06 115.4 176.287 115.32 175.567 115.16C174.847 115 174.153 114.773 173.487 114.48V122.4H167.527V94.68C168.06 94.52 168.673 94.3733 169.367 94.24C170.06 94.08 170.78 93.9467 171.527 93.84C172.3 93.7333 173.073 93.6533 173.847 93.6C174.647 93.52 175.407 93.48 176.127 93.48C177.86 93.48 179.407 93.7467 180.767 94.28C182.127 94.7867 183.273 95.52 184.207 96.48C185.14 97.4133 185.847 98.56 186.327 99.92C186.833 101.28 187.087 102.8 187.087 104.48ZM190.667 104.64C190.667 102.773 190.947 101.147 191.507 99.76C192.094 98.3467 192.854 97.1733 193.787 96.24C194.721 95.3067 195.787 94.6 196.987 94.12C198.214 93.64 199.467 93.4 200.747 93.4C203.734 93.4 206.094 94.32 207.827 96.16C209.561 97.9733 210.427 100.653 210.427 104.2C210.427 104.547 210.414 104.933 210.387 105.36C210.361 105.76 210.334 106.12 210.307 106.44H196.787C196.921 107.667 197.494 108.64 198.507 109.36C199.521 110.08 200.881 110.44 202.587 110.44C203.681 110.44 204.747 110.347 205.787 110.16C206.854 109.947 207.721 109.693 208.387 109.4L209.187 114.24C208.867 114.4 208.441 114.56 207.907 114.72C207.374 114.88 206.774 115.013 206.107 115.12C205.467 115.253 204.774 115.36 204.027 115.44C203.281 115.52 202.534 115.56 201.787 115.56C199.894 115.56 198.241 115.28 196.827 114.72C195.441 114.16 194.281 113.4 193.347 112.44C192.441 111.453 191.761 110.293 191.307 108.96C190.881 107.627 190.667 106.187 190.667 104.64ZM204.667 102.36C204.641 101.853 204.547 101.36 204.387 100.88C204.254 100.4 204.027 99.9733 203.707 99.6C203.414 99.2267 203.027 98.92 202.547 98.68C202.094 98.44 201.521 98.32 200.827 98.32C200.161 98.32 199.587 98.44 199.107 98.68C198.627 98.8933 198.227 99.1867 197.907 99.56C197.587 99.9333 197.334 100.373 197.147 100.88C196.987 101.36 196.867 101.853 196.787 102.36H204.667ZM227.707 99.24C227.173 99.1067 226.547 98.9733 225.827 98.84C225.107 98.68 224.333 98.6 223.507 98.6C223.133 98.6 222.68 98.64 222.147 98.72C221.64 98.7733 221.253 98.84 220.987 98.92V115H215.027V95.08C216.093 94.7067 217.347 94.36 218.787 94.04C220.253 93.6933 221.88 93.52 223.667 93.52C223.987 93.52 224.373 93.5467 224.827 93.6C225.28 93.6267 225.733 93.68 226.187 93.76C226.64 93.8133 227.093 93.8933 227.547 94C228 94.08 228.387 94.1867 228.707 94.32L227.707 99.24Z"/>
</mask>
<path d="M10.56 87.28C11.04 88.16 11.5867 89.2533 12.2 90.56C12.84 91.84 13.4933 93.24 14.16 94.76C14.8533 96.2533 15.5333 97.7867 16.2 99.36C16.8667 100.933 17.4933 102.413 18.08 103.8C18.6667 102.413 19.2933 100.933 19.96 99.36C20.6267 97.7867 21.2933 96.2533 21.96 94.76C22.6533 93.24 23.3067 91.84 23.92 90.56C24.56 89.2533 25.12 88.16 25.6 87.28H31.28C31.5467 89.12 31.7867 91.1867 32 93.48C32.24 95.7467 32.44 98.12 32.6 100.6C32.7867 103.053 32.9467 105.52 33.08 108C33.24 110.48 33.3733 112.813 33.48 115H27.4C27.32 112.307 27.2133 109.373 27.08 106.2C26.9467 103.027 26.7467 99.8267 26.48 96.6C26 97.72 25.4667 98.96 24.88 100.32C24.2933 101.68 23.7067 103.04 23.12 104.4C22.56 105.76 22.0133 107.067 21.48 108.32C20.9467 109.547 20.4933 110.6 20.12 111.48H15.76C15.3867 110.6 14.9333 109.547 14.4 108.32C13.8667 107.067 13.3067 105.76 12.72 104.4C12.16 103.04 11.5867 101.68 11 100.32C10.4133 98.96 9.88 97.72 9.4 96.6C9.13333 99.8267 8.93333 103.027 8.8 106.2C8.66667 109.373 8.56 112.307 8.48 115H2.4C2.50667 112.813 2.62667 110.48 2.76 108C2.92 105.52 3.08 103.053 3.24 100.6C3.42667 98.12 3.62667 95.7467 3.84 93.48C4.08 91.1867 4.33333 89.12 4.6 87.28H10.56ZM46.7384 110.84C47.3251 110.84 47.8851 110.827 48.4184 110.8C48.9518 110.773 49.3784 110.733 49.6984 110.68V106.16C49.4584 106.107 49.0984 106.053 48.6184 106C48.1384 105.947 47.6984 105.92 47.2984 105.92C46.7384 105.92 46.2051 105.96 45.6984 106.04C45.2184 106.093 44.7918 106.213 44.4184 106.4C44.0451 106.587 43.7518 106.84 43.5384 107.16C43.3251 107.48 43.2184 107.88 43.2184 108.36C43.2184 109.293 43.5251 109.947 44.1384 110.32C44.7784 110.667 45.6451 110.84 46.7384 110.84ZM46.2584 93.4C48.0184 93.4 49.4851 93.6 50.6584 94C51.8318 94.4 52.7651 94.9733 53.4584 95.72C54.1784 96.4667 54.6851 97.3733 54.9784 98.44C55.2718 99.5067 55.4184 100.693 55.4184 102V114.4C54.5651 114.587 53.3784 114.8 51.8584 115.04C50.3384 115.307 48.4984 115.44 46.3384 115.44C44.9784 115.44 43.7384 115.32 42.6184 115.08C41.5251 114.84 40.5784 114.453 39.7784 113.92C38.9784 113.36 38.3651 112.64 37.9384 111.76C37.5118 110.88 37.2984 109.8 37.2984 108.52C37.2984 107.293 37.5384 106.253 38.0184 105.4C38.5251 104.547 39.1918 103.867 40.0184 103.36C40.8451 102.853 41.7918 102.493 42.8584 102.28C43.9251 102.04 45.0318 101.92 46.1784 101.92C46.9518 101.92 47.6318 101.96 48.2184 102.04C48.8318 102.093 49.3251 102.173 49.6984 102.28V101.72C49.6984 100.707 49.3918 99.8933 48.7784 99.28C48.1651 98.6667 47.0984 98.36 45.5784 98.36C44.5651 98.36 43.5651 98.44 42.5784 98.6C41.5918 98.7333 40.7384 98.9333 40.0184 99.2L39.2584 94.4C39.6051 94.2933 40.0318 94.1867 40.5384 94.08C41.0718 93.9467 41.6451 93.84 42.2584 93.76C42.8718 93.6533 43.5118 93.5733 44.1784 93.52C44.8718 93.44 45.5651 93.4 46.2584 93.4ZM60.6078 88.72L66.5678 87.76V93.96H73.7278V98.92H66.5678V106.32C66.5678 107.573 66.7811 108.573 67.2078 109.32C67.6611 110.067 68.5545 110.44 69.8878 110.44C70.5278 110.44 71.1811 110.387 71.8478 110.28C72.5411 110.147 73.1678 109.973 73.7278 109.76L74.5678 114.4C73.8478 114.693 73.0478 114.947 72.1678 115.16C71.2878 115.373 70.2078 115.48 68.9278 115.48C67.3011 115.48 65.9545 115.267 64.8878 114.84C63.8211 114.387 62.9678 113.773 62.3278 113C61.6878 112.2 61.2345 111.24 60.9678 110.12C60.7278 109 60.6078 107.76 60.6078 106.4V88.72ZM78.5813 115V84.92L84.5413 83.96V94.04C84.9413 93.9067 85.4479 93.7867 86.0612 93.68C86.7013 93.5467 87.3146 93.48 87.9013 93.48C89.6079 93.48 91.0213 93.72 92.1413 94.2C93.2879 94.6533 94.1946 95.3067 94.8613 96.16C95.5546 97.0133 96.0346 98.0267 96.3013 99.2C96.5946 100.373 96.7413 101.68 96.7413 103.12V115H90.7813V103.84C90.7813 101.92 90.5279 100.56 90.0213 99.76C89.5413 98.96 88.6346 98.56 87.3013 98.56C86.7679 98.56 86.2613 98.6133 85.7812 98.72C85.3279 98.8 84.9146 98.8933 84.5413 99V115H78.5813ZM119.256 87.28H125.496V115H119.256V103.24H108.776V115H102.536V87.28H108.776V97.88H119.256V87.28ZM130.511 104.64C130.511 102.773 130.791 101.147 131.351 99.76C131.938 98.3467 132.698 97.1733 133.631 96.24C134.564 95.3067 135.631 94.6 136.831 94.12C138.058 93.64 139.311 93.4 140.591 93.4C143.578 93.4 145.938 94.32 147.671 96.16C149.404 97.9733 150.271 100.653 150.271 104.2C150.271 104.547 150.258 104.933 150.231 105.36C150.204 105.76 150.178 106.12 150.151 106.44H136.631C136.764 107.667 137.338 108.64 138.351 109.36C139.364 110.08 140.724 110.44 142.431 110.44C143.524 110.44 144.591 110.347 145.631 110.16C146.698 109.947 147.564 109.693 148.231 109.4L149.031 114.24C148.711 114.4 148.284 114.56 147.751 114.72C147.218 114.88 146.618 115.013 145.951 115.12C145.311 115.253 144.618 115.36 143.871 115.44C143.124 115.52 142.378 115.56 141.631 115.56C139.738 115.56 138.084 115.28 136.671 114.72C135.284 114.16 134.124 113.4 133.191 112.44C132.284 111.453 131.604 110.293 131.151 108.96C130.724 107.627 130.511 106.187 130.511 104.64ZM144.511 102.36C144.484 101.853 144.391 101.36 144.231 100.88C144.098 100.4 143.871 99.9733 143.551 99.6C143.258 99.2267 142.871 98.92 142.391 98.68C141.938 98.44 141.364 98.32 140.671 98.32C140.004 98.32 139.431 98.44 138.951 98.68C138.471 98.8933 138.071 99.1867 137.751 99.56C137.431 99.9333 137.178 100.373 136.991 100.88C136.831 101.36 136.711 101.853 136.631 102.36H144.511ZM163.27 115.4C161.537 115.373 160.124 115.187 159.03 114.84C157.964 114.493 157.11 114.013 156.47 113.4C155.857 112.76 155.43 112 155.19 111.12C154.977 110.213 154.87 109.2 154.87 108.08V84.92L160.83 83.96V106.88C160.83 107.413 160.87 107.893 160.95 108.32C161.03 108.747 161.177 109.107 161.39 109.4C161.63 109.693 161.964 109.933 162.39 110.12C162.817 110.307 163.39 110.427 164.11 110.48L163.27 115.4ZM181.007 104.64C181.007 102.8 180.593 101.333 179.767 100.24C178.94 99.12 177.713 98.56 176.087 98.56C175.553 98.56 175.06 98.5867 174.607 98.64C174.153 98.6667 173.78 98.7067 173.487 98.76V109.52C173.86 109.76 174.34 109.96 174.927 110.12C175.54 110.28 176.153 110.36 176.767 110.36C179.593 110.36 181.007 108.453 181.007 104.64ZM187.087 104.48C187.087 106.107 186.887 107.587 186.487 108.92C186.087 110.253 185.5 111.4 184.727 112.36C183.953 113.32 182.993 114.067 181.847 114.6C180.7 115.133 179.38 115.4 177.887 115.4C177.06 115.4 176.287 115.32 175.567 115.16C174.847 115 174.153 114.773 173.487 114.48V122.4H167.527V94.68C168.06 94.52 168.673 94.3733 169.367 94.24C170.06 94.08 170.78 93.9467 171.527 93.84C172.3 93.7333 173.073 93.6533 173.847 93.6C174.647 93.52 175.407 93.48 176.127 93.48C177.86 93.48 179.407 93.7467 180.767 94.28C182.127 94.7867 183.273 95.52 184.207 96.48C185.14 97.4133 185.847 98.56 186.327 99.92C186.833 101.28 187.087 102.8 187.087 104.48ZM190.667 104.64C190.667 102.773 190.947 101.147 191.507 99.76C192.094 98.3467 192.854 97.1733 193.787 96.24C194.721 95.3067 195.787 94.6 196.987 94.12C198.214 93.64 199.467 93.4 200.747 93.4C203.734 93.4 206.094 94.32 207.827 96.16C209.561 97.9733 210.427 100.653 210.427 104.2C210.427 104.547 210.414 104.933 210.387 105.36C210.361 105.76 210.334 106.12 210.307 106.44H196.787C196.921 107.667 197.494 108.64 198.507 109.36C199.521 110.08 200.881 110.44 202.587 110.44C203.681 110.44 204.747 110.347 205.787 110.16C206.854 109.947 207.721 109.693 208.387 109.4L209.187 114.24C208.867 114.4 208.441 114.56 207.907 114.72C207.374 114.88 206.774 115.013 206.107 115.12C205.467 115.253 204.774 115.36 204.027 115.44C203.281 115.52 202.534 115.56 201.787 115.56C199.894 115.56 198.241 115.28 196.827 114.72C195.441 114.16 194.281 113.4 193.347 112.44C192.441 111.453 191.761 110.293 191.307 108.96C190.881 107.627 190.667 106.187 190.667 104.64ZM204.667 102.36C204.641 101.853 204.547 101.36 204.387 100.88C204.254 100.4 204.027 99.9733 203.707 99.6C203.414 99.2267 203.027 98.92 202.547 98.68C202.094 98.44 201.521 98.32 200.827 98.32C200.161 98.32 199.587 98.44 199.107 98.68C198.627 98.8933 198.227 99.1867 197.907 99.56C197.587 99.9333 197.334 100.373 197.147 100.88C196.987 101.36 196.867 101.853 196.787 102.36H204.667ZM227.707 99.24C227.173 99.1067 226.547 98.9733 225.827 98.84C225.107 98.68 224.333 98.6 223.507 98.6C223.133 98.6 222.68 98.64 222.147 98.72C221.64 98.7733 221.253 98.84 220.987 98.92V115H215.027V95.08C216.093 94.7067 217.347 94.36 218.787 94.04C220.253 93.6933 221.88 93.52 223.667 93.52C223.987 93.52 224.373 93.5467 224.827 93.6C225.28 93.6267 225.733 93.68 226.187 93.76C226.64 93.8133 227.093 93.8933 227.547 94C228 94.08 228.387 94.1867 228.707 94.32L227.707 99.24Z" fill="#93C899"/>
<path d="M10.56 87.28L11.4379 86.8011L11.1536 86.28H10.56V87.28ZM12.2 90.56L11.2948 90.9849L11.3 90.9961L11.3056 91.0072L12.2 90.56ZM14.16 94.76L13.2442 95.1617L13.2485 95.1714L13.253 95.1811L14.16 94.76ZM16.2 99.36L17.1208 98.9699L17.1208 98.9698L16.2 99.36ZM18.08 103.8L17.159 104.19L18.08 106.366L19.001 104.19L18.08 103.8ZM19.96 99.36L19.0392 98.9698L19.0392 98.9699L19.96 99.36ZM21.96 94.76L21.0502 94.345L21.0469 94.3523L21.96 94.76ZM23.92 90.56L23.0219 90.1201L23.0182 90.1279L23.92 90.56ZM25.6 87.28V86.28H25.0064L24.7221 86.8011L25.6 87.28ZM31.28 87.28L32.2697 87.1366L32.1455 86.28H31.28V87.28ZM32 93.48L31.0042 93.5726L31.0056 93.5853L32 93.48ZM32.6 100.6L31.602 100.664L31.6029 100.676L32.6 100.6ZM33.08 108L32.0814 108.054L32.0821 108.064L33.08 108ZM33.48 115V116H34.53L34.4788 114.951L33.48 115ZM27.4 115L26.4004 115.03L26.4293 116H27.4V115ZM27.08 106.2L28.0791 106.158L27.08 106.2ZM26.48 96.6L27.4766 96.5176L25.5609 96.2061L26.48 96.6ZM23.12 104.4L22.2018 104.004L22.1985 104.012L22.1953 104.019L23.12 104.4ZM21.48 108.32L22.3971 108.719L22.4002 108.712L21.48 108.32ZM20.12 111.48V112.48H20.782L21.0406 111.871L20.12 111.48ZM15.76 111.48L14.8394 111.871L15.098 112.48H15.76V111.48ZM14.4 108.32L13.4798 108.712L13.4829 108.719L14.4 108.32ZM12.72 104.4L11.7953 104.781L11.7985 104.788L11.8018 104.796L12.72 104.4ZM11 100.32L10.0818 100.716L10.0818 100.716L11 100.32ZM9.4 96.6L10.3191 96.2061L8.4034 96.5176L9.4 96.6ZM8.8 106.2L9.79912 106.242L9.79912 106.242L8.8 106.2ZM8.48 115V116H9.45074L9.47956 115.03L8.48 115ZM2.4 115L1.40119 114.951L1.35003 116H2.4V115ZM2.76 108L1.76202 107.936L1.76144 107.946L2.76 108ZM3.24 100.6L2.24277 100.525L2.24212 100.535L3.24 100.6ZM3.84 93.48L2.84538 93.3759L2.8444 93.3863L3.84 93.48ZM4.6 87.28V86.28H3.73448L3.61034 87.1366L4.6 87.28ZM9.6821 87.7589C10.1493 88.6153 10.6866 89.6893 11.2948 90.9849L13.1052 90.1351C12.4867 88.8174 11.9307 87.7047 11.4379 86.8011L9.6821 87.7589ZM11.3056 91.0072C11.937 92.2701 12.5832 93.6547 13.2442 95.1617L15.0758 94.3583C14.4034 92.8253 13.743 91.4099 13.0944 90.1128L11.3056 91.0072ZM13.253 95.1811C13.9414 96.6638 14.6168 98.1868 15.2792 99.7501L17.1208 98.9698C16.4498 97.3865 15.7653 95.8428 15.067 94.3389L13.253 95.1811ZM15.2792 99.7501C15.9459 101.323 16.5724 102.803 17.159 104.19L19.001 103.41C18.4142 102.024 17.7875 100.543 17.1208 98.9699L15.2792 99.7501ZM19.001 104.19C19.5876 102.803 20.2141 101.323 20.8808 99.7501L19.0392 98.9699C18.3725 100.543 17.7458 102.024 17.159 103.41L19.001 104.19ZM20.8808 99.7501C21.545 98.1824 22.2092 96.6549 22.8731 95.1676L21.0469 94.3523C20.3775 95.8517 19.7083 97.3909 19.0392 98.9698L20.8808 99.7501ZM22.8698 95.175C23.561 93.6598 24.2116 92.2656 24.8218 90.9921L23.0182 90.1279C22.4017 91.4144 21.7457 92.8202 21.0502 94.345L22.8698 95.175ZM24.8181 90.9999C25.4542 89.7011 26.0072 88.6217 26.4779 87.7589L24.7221 86.8011C24.2328 87.6983 23.6658 88.8056 23.0219 90.1201L24.8181 90.9999ZM25.6 88.28H31.28V86.28H25.6V88.28ZM30.2903 87.4234C30.5541 89.2431 30.7922 91.2925 31.0043 93.5726L32.9957 93.3874C32.7811 91.0809 32.5393 88.9969 32.2697 87.1366L30.2903 87.4234ZM31.0056 93.5853C31.244 95.8372 31.4429 98.1968 31.6021 100.664L33.5979 100.536C33.4371 98.0432 33.236 95.6561 32.9944 93.3747L31.0056 93.5853ZM31.6029 100.676C31.789 103.122 31.9485 105.581 32.0814 108.054L34.0786 107.946C33.9448 105.459 33.7844 102.985 33.5971 100.524L31.6029 100.676ZM32.0821 108.064C32.2418 110.54 32.3748 112.868 32.4812 115.049L34.4788 114.951C34.3719 112.759 34.2382 110.42 34.0779 107.936L32.0821 108.064ZM33.48 114H27.4V116H33.48V114ZM28.3996 114.97C28.3194 112.272 28.2126 109.335 28.0791 106.158L26.0809 106.242C26.2141 109.412 26.3206 112.341 26.4004 115.03L28.3996 114.97ZM28.0791 106.158C27.9452 102.971 27.7444 99.7575 27.4766 96.5176L25.4834 96.6824C25.749 99.8958 25.9481 103.082 26.0809 106.242L28.0791 106.158ZM25.5609 96.2061C25.0812 97.3252 24.5482 98.5645 23.9618 99.9239L25.7982 100.716C26.3851 99.3555 26.9188 98.1148 27.3991 96.9939L25.5609 96.2061ZM23.9618 99.9239C23.9462 99.96 23.9498 99.9516 23.9343 99.9877C23.9187 100.024 23.9223 100.015 23.9068 100.051C23.8912 100.087 23.8948 100.079 23.8793 100.115C23.8637 100.151 23.8673 100.143 23.8518 100.179C23.8362 100.215 23.8398 100.207 23.8243 100.243C23.8087 100.279 23.8123 100.27 23.7968 100.306C23.7812 100.342 23.7848 100.334 23.7693 100.37C23.7537 100.406 23.7573 100.398 23.7418 100.434C23.7262 100.47 23.7298 100.462 23.7143 100.498C23.6987 100.534 23.7023 100.525 23.6868 100.561C23.6712 100.597 23.6748 100.589 23.6593 100.625C23.6437 100.661 23.6473 100.653 23.6318 100.689C23.6162 100.725 23.6198 100.717 23.6043 100.753C23.5887 100.789 23.5923 100.78 23.5768 100.816C23.5612 100.852 23.5648 100.844 23.5493 100.88C23.5337 100.916 23.5373 100.908 23.5218 100.944C23.5062 100.98 23.5098 100.972 23.4943 101.008C23.4787 101.044 23.4823 101.035 23.4668 101.071C23.4512 101.107 23.4548 101.099 23.4393 101.135C23.4237 101.171 23.4273 101.163 23.4118 101.199C23.3962 101.235 23.3998 101.227 23.3843 101.263C23.3687 101.299 23.3723 101.29 23.3568 101.326C23.3412 101.362 23.3448 101.354 23.3293 101.39C23.3137 101.426 23.3173 101.418 23.3018 101.454C23.2862 101.49 23.2898 101.482 23.2743 101.518C23.2587 101.554 23.2623 101.545 23.2468 101.581C23.2312 101.617 23.2348 101.609 23.2193 101.645C23.2037 101.681 23.2073 101.673 23.1918 101.709C23.1762 101.745 23.1798 101.737 23.1643 101.773C23.1487 101.809 23.1523 101.8 23.1368 101.836C23.1212 101.872 23.1248 101.864 23.1093 101.9C23.0937 101.936 23.0973 101.928 23.0818 101.964C23.0806 101.967 23.0795 101.969 23.0784 101.972C23.0772 101.975 23.0761 101.977 23.0749 101.98C23.0738 101.983 23.0726 101.985 23.0715 101.988C23.0703 101.99 23.0692 101.993 23.068 101.996C23.0669 101.998 23.0657 102.001 23.0646 102.004C23.0635 102.006 23.0623 102.009 23.0612 102.012C23.06 102.014 23.0589 102.017 23.0577 102.02C23.0566 102.022 23.0554 102.025 23.0543 102.028C23.0531 102.03 23.052 102.033 23.0509 102.036C23.0497 102.038 23.0486 102.041 23.0474 102.044C23.0463 102.046 23.0451 102.049 23.044 102.052C23.0428 102.054 23.0417 102.057 23.0405 102.06C23.0394 102.062 23.0382 102.065 23.0371 102.068C23.036 102.07 23.0348 102.073 23.0337 102.075C23.0325 102.078 23.0314 102.081 23.0302 102.083C23.0291 102.086 23.0279 102.089 23.0268 102.091C23.0256 102.094 23.0245 102.097 23.0234 102.099C23.0222 102.102 23.0211 102.105 23.0199 102.107C23.0188 102.11 23.0176 102.113 23.0165 102.115C23.0153 102.118 23.0142 102.121 23.013 102.123C23.0119 102.126 23.0107 102.129 23.0096 102.131C23.0085 102.134 23.0073 102.137 23.0062 102.139C23.005 102.142 23.0039 102.145 23.0027 102.147C23.0016 102.15 23.0004 102.153 22.9993 102.155C22.9981 102.158 22.997 102.16 22.9959 102.163C22.9947 102.166 22.9936 102.168 22.9924 102.171C22.9913 102.174 22.9901 102.176 22.989 102.179C22.9878 102.182 22.9867 102.184 22.9855 102.187C22.9844 102.19 22.9832 102.192 22.9821 102.195C22.981 102.198 22.9798 102.2 22.9787 102.203C22.9775 102.206 22.9764 102.208 22.9752 102.211C22.9741 102.214 22.9729 102.216 22.9718 102.219C22.9706 102.222 22.9695 102.224 22.9684 102.227C22.9672 102.23 22.9661 102.232 22.9649 102.235C22.9638 102.238 22.9626 102.24 22.9615 102.243C22.9603 102.245 22.9592 102.248 22.958 102.251C22.9569 102.253 22.9557 102.256 22.9546 102.259C22.9535 102.261 22.9523 102.264 22.9512 102.267C22.95 102.269 22.9489 102.272 22.9477 102.275C22.9466 102.277 22.9454 102.28 22.9443 102.283C22.9431 102.285 22.942 102.288 22.9409 102.291C22.9397 102.293 22.9386 102.296 22.9374 102.299C22.9363 102.301 22.9351 102.304 22.934 102.307C22.9328 102.309 22.9317 102.312 22.9305 102.315C22.9294 102.317 22.9282 102.32 22.9271 102.323C22.926 102.325 22.9248 102.328 22.9237 102.33C22.9225 102.333 22.9214 102.336 22.9202 102.338C22.9191 102.341 22.9179 102.344 22.9168 102.346C22.9156 102.349 22.9145 102.352 22.9134 102.354C22.9122 102.357 22.9111 102.36 22.9099 102.362C22.9088 102.365 22.9076 102.368 22.9065 102.37C22.9053 102.373 22.9042 102.376 22.903 102.378C22.9019 102.381 22.9007 102.384 22.8996 102.386C22.8985 102.389 22.8973 102.392 22.8962 102.394C22.895 102.397 22.8939 102.4 22.8927 102.402C22.8916 102.405 22.8904 102.408 22.8893 102.41C22.8881 102.413 22.887 102.415 22.8859 102.418C22.8847 102.421 22.8836 102.423 22.8824 102.426C22.8813 102.429 22.8801 102.431 22.879 102.434C22.8778 102.437 22.8767 102.439 22.8755 102.442C22.8744 102.445 22.8732 102.447 22.8721 102.45C22.871 102.453 22.8698 102.455 22.8687 102.458C22.8675 102.461 22.8664 102.463 22.8652 102.466C22.8641 102.469 22.8629 102.471 22.8618 102.474C22.8606 102.477 22.8595 102.479 22.8584 102.482C22.8572 102.485 22.8561 102.487 22.8549 102.49C22.8538 102.493 22.8526 102.495 22.8515 102.498C22.8503 102.5 22.8492 102.503 22.848 102.506C22.8469 102.508 22.8457 102.511 22.8446 102.514C22.8435 102.516 22.8423 102.519 22.8412 102.522C22.84 102.524 22.8389 102.527 22.8377 102.53C22.8366 102.532 22.8354 102.535 22.8343 102.538C22.8331 102.54 22.832 102.543 22.8309 102.546C22.8297 102.548 22.8286 102.551 22.8274 102.554C22.8263 102.556 22.8251 102.559 22.824 102.562C22.8228 102.564 22.8217 102.567 22.8205 102.57C22.8194 102.572 22.8182 102.575 22.8171 102.578C22.816 102.58 22.8148 102.583 22.8137 102.585C22.8125 102.588 22.8114 102.591 22.8102 102.593C22.8091 102.596 22.8079 102.599 22.8068 102.601C22.8056 102.604 22.8045 102.607 22.8034 102.609C22.8022 102.612 22.8011 102.615 22.7999 102.617C22.7988 102.62 22.7976 102.623 22.7965 102.625C22.7953 102.628 22.7942 102.631 22.793 102.633C22.7919 102.636 22.7907 102.639 22.7896 102.641C22.7885 102.644 22.7873 102.647 22.7862 102.649C22.785 102.652 22.7839 102.655 22.7827 102.657C22.7816 102.66 22.7804 102.663 22.7793 102.665C22.7781 102.668 22.777 102.67 22.7759 102.673C22.7747 102.676 22.7736 102.678 22.7724 102.681C22.7713 102.684 22.7701 102.686 22.769 102.689C22.7678 102.692 22.7667 102.694 22.7655 102.697C22.7644 102.7 22.7632 102.702 22.7621 102.705C22.761 102.708 22.7598 102.71 22.7587 102.713C22.7575 102.716 22.7564 102.718 22.7552 102.721C22.7541 102.724 22.7529 102.726 22.7518 102.729C22.7506 102.732 22.7495 102.734 22.7484 102.737C22.7472 102.74 22.7461 102.742 22.7449 102.745C22.7438 102.748 22.7426 102.75 22.7415 102.753C22.7403 102.755 22.7392 102.758 22.738 102.761C22.7369 102.763 22.7357 102.766 22.7346 102.769C22.7335 102.771 22.7323 102.774 22.7312 102.777C22.73 102.779 22.7289 102.782 22.7277 102.785C22.7266 102.787 22.7254 102.79 22.7243 102.793C22.7231 102.795 22.722 102.798 22.7209 102.801C22.7197 102.803 22.7186 102.806 22.7174 102.809C22.7163 102.811 22.7151 102.814 22.714 102.817C22.7128 102.819 22.7117 102.822 22.7105 102.825C22.7094 102.827 22.7082 102.83 22.7071 102.833C22.706 102.835 22.7048 102.838 22.7037 102.84C22.7025 102.843 22.7014 102.846 22.7002 102.848C22.6991 102.851 22.6979 102.854 22.6968 102.856C22.6956 102.859 22.6945 102.862 22.6934 102.864C22.6922 102.867 22.6911 102.87 22.6899 102.872C22.6888 102.875 22.6876 102.878 22.6865 102.88C22.6853 102.883 22.6842 102.886 22.683 102.888C22.6819 102.891 22.6807 102.894 22.6796 102.896C22.6785 102.899 22.6773 102.902 22.6762 102.904C22.675 102.907 22.6739 102.91 22.6727 102.912C22.6716 102.915 22.6704 102.918 22.6693 102.92C22.6681 102.923 22.667 102.925 22.6659 102.928C22.6647 102.931 22.6636 102.933 22.6624 102.936C22.6613 102.939 22.6601 102.941 22.659 102.944C22.6578 102.947 22.6567 102.949 22.6555 102.952C22.6544 102.955 22.6532 102.957 22.6521 102.96C22.651 102.963 22.6498 102.965 22.6487 102.968C22.6475 102.971 22.6464 102.973 22.6452 102.976C22.6441 102.979 22.6429 102.981 22.6418 102.984C22.6406 102.987 22.6395 102.989 22.6384 102.992C22.6372 102.995 22.6361 102.997 22.6349 103C22.6338 103.003 22.6326 103.005 22.6315 103.008C22.6303 103.01 22.6292 103.013 22.628 103.016C22.6269 103.018 22.6257 103.021 22.6246 103.024C22.6235 103.026 22.6223 103.029 22.6212 103.032C22.62 103.034 22.6189 103.037 22.6177 103.04C22.6166 103.042 22.6154 103.045 22.6143 103.048C22.6131 103.05 22.612 103.053 22.6109 103.056C22.6097 103.058 22.6086 103.061 22.6074 103.064C22.6063 103.066 22.6051 103.069 22.604 103.072C22.6028 103.074 22.6017 103.077 22.6005 103.08C22.5994 103.082 22.5982 103.085 22.5971 103.088C22.596 103.09 22.5948 103.093 22.5937 103.095C22.5925 103.098 22.5914 103.101 22.5902 103.103C22.5891 103.106 22.5879 103.109 22.5868 103.111C22.5856 103.114 22.5845 103.117 22.5834 103.119C22.5822 103.122 22.5811 103.125 22.5799 103.127C22.5788 103.13 22.5776 103.133 22.5765 103.135C22.5753 103.138 22.5742 103.141 22.573 103.143C22.5719 103.146 22.5707 103.149 22.5696 103.151C22.5685 103.154 22.5673 103.157 22.5662 103.159C22.565 103.162 22.5639 103.165 22.5627 103.167C22.5616 103.17 22.5604 103.173 22.5593 103.175C22.5581 103.178 22.557 103.18 22.5559 103.183C22.5547 103.186 22.5536 103.188 22.5524 103.191C22.5513 103.194 22.5501 103.196 22.549 103.199C22.5478 103.202 22.5467 103.204 22.5455 103.207C22.5444 103.21 22.5432 103.212 22.5421 103.215C22.541 103.218 22.5398 103.22 22.5387 103.223C22.5375 103.226 22.5364 103.228 22.5352 103.231C22.5341 103.234 22.5329 103.236 22.5318 103.239C22.5306 103.242 22.5295 103.244 22.5284 103.247C22.5272 103.25 22.5261 103.252 22.5249 103.255C22.5238 103.258 22.5226 103.26 22.5215 103.263C22.5203 103.265 22.5192 103.268 22.518 103.271C22.5169 103.273 22.5157 103.276 22.5146 103.279C22.5135 103.281 22.5123 103.284 22.5112 103.287C22.51 103.289 22.5089 103.292 22.5077 103.295C22.5066 103.297 22.5054 103.3 22.5043 103.303C22.5031 103.305 22.502 103.308 22.5009 103.311C22.4997 103.313 22.4986 103.316 22.4974 103.319C22.4963 103.321 22.4951 103.324 22.494 103.327C22.4928 103.329 22.4917 103.332 22.4905 103.335C22.4894 103.337 22.4882 103.34 22.4871 103.343C22.486 103.345 22.4848 103.348 22.4837 103.35C22.4825 103.353 22.4814 103.356 22.4802 103.358C22.4791 103.361 22.4779 103.364 22.4768 103.366C22.4756 103.369 22.4745 103.372 22.4734 103.374C22.4722 103.377 22.4711 103.38 22.4699 103.382C22.4688 103.385 22.4676 103.388 22.4665 103.39C22.4653 103.393 22.4642 103.396 22.463 103.398C22.4619 103.401 22.4607 103.404 22.4596 103.406C22.4585 103.409 22.4573 103.412 22.4562 103.414C22.455 103.417 22.4539 103.42 22.4527 103.422C22.4516 103.425 22.4504 103.428 22.4493 103.43C22.4481 103.433 22.447 103.435 22.4459 103.438C22.4447 103.441 22.4436 103.443 22.4424 103.446C22.4413 103.449 22.4401 103.451 22.439 103.454C22.4378 103.457 22.4367 103.459 22.4355 103.462C22.4344 103.465 22.4332 103.467 22.4321 103.47C22.431 103.473 22.4298 103.475 22.4287 103.478C22.4275 103.481 22.4264 103.483 22.4252 103.486C22.4241 103.489 22.4229 103.491 22.4218 103.494C22.4206 103.497 22.4195 103.499 22.4184 103.502C22.4172 103.505 22.4161 103.507 22.4149 103.51C22.4138 103.513 22.4126 103.515 22.4115 103.518C22.4103 103.52 22.4092 103.523 22.408 103.526C22.4069 103.528 22.4057 103.531 22.4046 103.534C22.4035 103.536 22.4023 103.539 22.4012 103.542C22.4 103.544 22.3989 103.547 22.3977 103.55C22.3966 103.552 22.3954 103.555 22.3943 103.558C22.3931 103.56 22.392 103.563 22.3909 103.566C22.3897 103.568 22.3886 103.571 22.3874 103.574C22.3863 103.576 22.3851 103.579 22.384 103.582C22.3828 103.584 22.3817 103.587 22.3805 103.59C22.3794 103.592 22.3782 103.595 22.3771 103.598C22.376 103.6 22.3748 103.603 22.3737 103.605C22.3725 103.608 22.3714 103.611 22.3702 103.613C22.3691 103.616 22.3679 103.619 22.3668 103.621C22.3656 103.624 22.3645 103.627 22.3634 103.629C22.3622 103.632 22.3611 103.635 22.3599 103.637C22.3588 103.64 22.3576 103.643 22.3565 103.645C22.3553 103.648 22.3542 103.651 22.353 103.653C22.3519 103.656 22.3507 103.659 22.3496 103.661C22.3485 103.664 22.3473 103.667 22.3462 103.669C22.345 103.672 22.3439 103.675 22.3427 103.677C22.3416 103.68 22.3404 103.683 22.3393 103.685C22.3381 103.688 22.337 103.69 22.3359 103.693C22.3347 103.696 22.3336 103.698 22.3324 103.701C22.3313 103.704 22.3301 103.706 22.329 103.709C22.3278 103.712 22.3267 103.714 22.3255 103.717C22.3244 103.72 22.3232 103.722 22.3221 103.725C22.321 103.728 22.3198 103.73 22.3187 103.733C22.3175 103.736 22.3164 103.738 22.3152 103.741C22.3141 103.744 22.3129 103.746 22.3118 103.749C22.3106 103.752 22.3095 103.754 22.3084 103.757C22.3072 103.76 22.3061 103.762 22.3049 103.765C22.3038 103.768 22.3026 103.77 22.3015 103.773C22.3003 103.775 22.2992 103.778 22.298 103.781C22.2969 103.783 22.2957 103.786 22.2946 103.789C22.2935 103.791 22.2923 103.794 22.2912 103.797C22.29 103.799 22.2889 103.802 22.2877 103.805C22.2866 103.807 22.2854 103.81 22.2843 103.813C22.2831 103.815 22.282 103.818 22.2809 103.821C22.2797 103.823 22.2786 103.826 22.2774 103.829C22.2763 103.831 22.2751 103.834 22.274 103.837C22.2728 103.839 22.2717 103.842 22.2705 103.845C22.2694 103.847 22.2682 103.85 22.2671 103.853C22.266 103.855 22.2648 103.858 22.2637 103.86C22.2625 103.863 22.2614 103.866 22.2602 103.868C22.2591 103.871 22.2579 103.874 22.2568 103.876C22.2556 103.879 22.2545 103.882 22.2534 103.884C22.2522 103.887 22.2511 103.89 22.2499 103.892C22.2488 103.895 22.2476 103.898 22.2465 103.9C22.2453 103.903 22.2442 103.906 22.243 103.908C22.2419 103.911 22.2407 103.914 22.2396 103.916C22.2385 103.919 22.2373 103.922 22.2362 103.924C22.235 103.927 22.2339 103.93 22.2327 103.932C22.2316 103.935 22.2304 103.938 22.2293 103.94C22.2281 103.943 22.227 103.945 22.2259 103.948C22.2247 103.951 22.2236 103.953 22.2224 103.956C22.2213 103.959 22.2201 103.961 22.219 103.964C22.2178 103.967 22.2167 103.969 22.2155 103.972C22.2144 103.975 22.2132 103.977 22.2121 103.98C22.211 103.983 22.2098 103.985 22.2087 103.988C22.2075 103.991 22.2064 103.993 22.2052 103.996C22.2041 103.999 22.2029 104.001 22.2018 104.004L24.0382 104.796C24.0538 104.76 24.0502 104.768 24.0657 104.732C24.0813 104.696 24.0777 104.705 24.0932 104.669C24.1088 104.633 24.1052 104.641 24.1207 104.605C24.1363 104.569 24.1327 104.577 24.1482 104.541C24.1638 104.505 24.1602 104.513 24.1757 104.477C24.1913 104.441 24.1877 104.45 24.2032 104.414C24.2188 104.378 24.2152 104.386 24.2307 104.35C24.2463 104.314 24.2427 104.322 24.2582 104.286C24.2738 104.25 24.2702 104.258 24.2857 104.222C24.3013 104.186 24.2977 104.195 24.3132 104.159C24.3288 104.123 24.3252 104.131 24.3407 104.095C24.3563 104.059 24.3527 104.067 24.3682 104.031C24.3838 103.995 24.3802 104.003 24.3957 103.967C24.4113 103.931 24.4077 103.94 24.4232 103.904C24.4388 103.868 24.4352 103.876 24.4507 103.84C24.4663 103.804 24.4627 103.812 24.4782 103.776C24.4938 103.74 24.4902 103.748 24.5057 103.712C24.5213 103.676 24.5177 103.685 24.5332 103.649C24.5488 103.613 24.5452 103.621 24.5607 103.585C24.5763 103.549 24.5727 103.557 24.5882 103.521C24.6038 103.485 24.6002 103.493 24.6157 103.457C24.6313 103.421 24.6277 103.43 24.6432 103.394C24.6588 103.358 24.6552 103.366 24.6707 103.33C24.6863 103.294 24.6827 103.302 24.6982 103.266C24.7138 103.23 24.7102 103.238 24.7257 103.202C24.7413 103.166 24.7377 103.175 24.7532 103.139C24.7688 103.103 24.7652 103.111 24.7807 103.075C24.7963 103.039 24.7927 103.047 24.8082 103.011C24.8238 102.975 24.8202 102.983 24.8357 102.947C24.8513 102.911 24.8477 102.92 24.8632 102.884C24.8788 102.848 24.8752 102.856 24.8907 102.82C24.9063 102.784 24.9027 102.792 24.9182 102.756C24.9194 102.753 24.9205 102.751 24.9216 102.748C24.9228 102.745 24.9239 102.743 24.9251 102.74C24.9262 102.737 24.9274 102.735 24.9285 102.732C24.9297 102.73 24.9308 102.727 24.932 102.724C24.9331 102.722 24.9343 102.719 24.9354 102.716C24.9365 102.714 24.9377 102.711 24.9388 102.708C24.94 102.706 24.9411 102.703 24.9423 102.7C24.9434 102.698 24.9446 102.695 24.9457 102.692C24.9469 102.69 24.948 102.687 24.9491 102.684C24.9503 102.682 24.9514 102.679 24.9526 102.676C24.9537 102.674 24.9549 102.671 24.956 102.668C24.9572 102.666 24.9583 102.663 24.9595 102.66C24.9606 102.658 24.9618 102.655 24.9629 102.652C24.964 102.65 24.9652 102.647 24.9663 102.645C24.9675 102.642 24.9686 102.639 24.9698 102.637C24.9709 102.634 24.9721 102.631 24.9732 102.629C24.9744 102.626 24.9755 102.623 24.9766 102.621C24.9778 102.618 24.9789 102.615 24.9801 102.613C24.9812 102.61 24.9824 102.607 24.9835 102.605C24.9847 102.602 24.9858 102.599 24.987 102.597C24.9881 102.594 24.9893 102.591 24.9904 102.589C24.9915 102.586 24.9927 102.583 24.9938 102.581C24.995 102.578 24.9961 102.575 24.9973 102.573C24.9984 102.57 24.9996 102.567 25.0007 102.565C25.0019 102.562 25.003 102.56 25.0041 102.557C25.0053 102.554 25.0064 102.552 25.0076 102.549C25.0087 102.546 25.0099 102.544 25.011 102.541C25.0122 102.538 25.0133 102.536 25.0145 102.533C25.0156 102.53 25.0168 102.528 25.0179 102.525C25.019 102.522 25.0202 102.52 25.0213 102.517C25.0225 102.514 25.0236 102.512 25.0248 102.509C25.0259 102.506 25.0271 102.504 25.0282 102.501C25.0294 102.498 25.0305 102.496 25.0316 102.493C25.0328 102.49 25.0339 102.488 25.0351 102.485C25.0362 102.482 25.0374 102.48 25.0385 102.477C25.0397 102.475 25.0408 102.472 25.042 102.469C25.0431 102.467 25.0443 102.464 25.0454 102.461C25.0465 102.459 25.0477 102.456 25.0488 102.453C25.05 102.451 25.0511 102.448 25.0523 102.445C25.0534 102.443 25.0546 102.44 25.0557 102.437C25.0569 102.435 25.058 102.432 25.0591 102.429C25.0603 102.427 25.0614 102.424 25.0626 102.421C25.0637 102.419 25.0649 102.416 25.066 102.413C25.0672 102.411 25.0683 102.408 25.0695 102.405C25.0706 102.403 25.0718 102.4 25.0729 102.397C25.074 102.395 25.0752 102.392 25.0763 102.39C25.0775 102.387 25.0786 102.384 25.0798 102.382C25.0809 102.379 25.0821 102.376 25.0832 102.374C25.0844 102.371 25.0855 102.368 25.0866 102.366C25.0878 102.363 25.0889 102.36 25.0901 102.358C25.0912 102.355 25.0924 102.352 25.0935 102.35C25.0947 102.347 25.0958 102.344 25.097 102.342C25.0981 102.339 25.0993 102.336 25.1004 102.334C25.1015 102.331 25.1027 102.328 25.1038 102.326C25.105 102.323 25.1061 102.32 25.1073 102.318C25.1084 102.315 25.1096 102.312 25.1107 102.31C25.1119 102.307 25.113 102.305 25.1141 102.302C25.1153 102.299 25.1164 102.297 25.1176 102.294C25.1187 102.291 25.1199 102.289 25.121 102.286C25.1222 102.283 25.1233 102.281 25.1245 102.278C25.1256 102.275 25.1268 102.273 25.1279 102.27C25.129 102.267 25.1302 102.265 25.1313 102.262C25.1325 102.259 25.1336 102.257 25.1348 102.254C25.1359 102.251 25.1371 102.249 25.1382 102.246C25.1394 102.243 25.1405 102.241 25.1416 102.238C25.1428 102.235 25.1439 102.233 25.1451 102.23C25.1462 102.227 25.1474 102.225 25.1485 102.222C25.1497 102.22 25.1508 102.217 25.152 102.214C25.1531 102.212 25.1543 102.209 25.1554 102.206C25.1565 102.204 25.1577 102.201 25.1588 102.198C25.16 102.196 25.1611 102.193 25.1623 102.19C25.1634 102.188 25.1646 102.185 25.1657 102.182C25.1669 102.18 25.168 102.177 25.1691 102.174C25.1703 102.172 25.1714 102.169 25.1726 102.166C25.1737 102.164 25.1749 102.161 25.176 102.158C25.1772 102.156 25.1783 102.153 25.1795 102.15C25.1806 102.148 25.1818 102.145 25.1829 102.142C25.184 102.14 25.1852 102.137 25.1863 102.135C25.1875 102.132 25.1886 102.129 25.1898 102.127C25.1909 102.124 25.1921 102.121 25.1932 102.119C25.1944 102.116 25.1955 102.113 25.1966 102.111C25.1978 102.108 25.1989 102.105 25.2001 102.103C25.2012 102.1 25.2024 102.097 25.2035 102.095C25.2047 102.092 25.2058 102.089 25.207 102.087C25.2081 102.084 25.2093 102.081 25.2104 102.079C25.2115 102.076 25.2127 102.073 25.2138 102.071C25.215 102.068 25.2161 102.065 25.2173 102.063C25.2184 102.06 25.2196 102.057 25.2207 102.055C25.2219 102.052 25.223 102.05 25.2241 102.047C25.2253 102.044 25.2264 102.042 25.2276 102.039C25.2287 102.036 25.2299 102.034 25.231 102.031C25.2322 102.028 25.2333 102.026 25.2345 102.023C25.2356 102.02 25.2368 102.018 25.2379 102.015C25.239 102.012 25.2402 102.01 25.2413 102.007C25.2425 102.004 25.2436 102.002 25.2448 101.999C25.2459 101.996 25.2471 101.994 25.2482 101.991C25.2494 101.988 25.2505 101.986 25.2516 101.983C25.2528 101.98 25.2539 101.978 25.2551 101.975C25.2562 101.972 25.2574 101.97 25.2585 101.967C25.2597 101.965 25.2608 101.962 25.262 101.959C25.2631 101.957 25.2643 101.954 25.2654 101.951C25.2665 101.949 25.2677 101.946 25.2688 101.943C25.27 101.941 25.2711 101.938 25.2723 101.935C25.2734 101.933 25.2746 101.93 25.2757 101.927C25.2769 101.925 25.278 101.922 25.2791 101.919C25.2803 101.917 25.2814 101.914 25.2826 101.911C25.2837 101.909 25.2849 101.906 25.286 101.903C25.2872 101.901 25.2883 101.898 25.2895 101.895C25.2906 101.893 25.2918 101.89 25.2929 101.887C25.294 101.885 25.2952 101.882 25.2963 101.88C25.2975 101.877 25.2986 101.874 25.2998 101.872C25.3009 101.869 25.3021 101.866 25.3032 101.864C25.3044 101.861 25.3055 101.858 25.3066 101.856C25.3078 101.853 25.3089 101.85 25.3101 101.848C25.3112 101.845 25.3124 101.842 25.3135 101.84C25.3147 101.837 25.3158 101.834 25.317 101.832C25.3181 101.829 25.3193 101.826 25.3204 101.824C25.3215 101.821 25.3227 101.818 25.3238 101.816C25.325 101.813 25.3261 101.81 25.3273 101.808C25.3284 101.805 25.3296 101.802 25.3307 101.8C25.3319 101.797 25.333 101.795 25.3341 101.792C25.3353 101.789 25.3364 101.787 25.3376 101.784C25.3387 101.781 25.3399 101.779 25.341 101.776C25.3422 101.773 25.3433 101.771 25.3445 101.768C25.3456 101.765 25.3468 101.763 25.3479 101.76C25.349 101.757 25.3502 101.755 25.3513 101.752C25.3525 101.749 25.3536 101.747 25.3548 101.744C25.3559 101.741 25.3571 101.739 25.3582 101.736C25.3594 101.733 25.3605 101.731 25.3616 101.728C25.3628 101.725 25.3639 101.723 25.3651 101.72C25.3662 101.717 25.3674 101.715 25.3685 101.712C25.3697 101.71 25.3708 101.707 25.372 101.704C25.3731 101.702 25.3743 101.699 25.3754 101.696C25.3765 101.694 25.3777 101.691 25.3788 101.688C25.38 101.686 25.3811 101.683 25.3823 101.68C25.3834 101.678 25.3846 101.675 25.3857 101.672C25.3869 101.67 25.388 101.667 25.3891 101.664C25.3903 101.662 25.3914 101.659 25.3926 101.656C25.3937 101.654 25.3949 101.651 25.396 101.648C25.3972 101.646 25.3983 101.643 25.3995 101.64C25.4006 101.638 25.4018 101.635 25.4029 101.632C25.404 101.63 25.4052 101.627 25.4063 101.625C25.4075 101.622 25.4086 101.619 25.4098 101.617C25.4109 101.614 25.4121 101.611 25.4132 101.609C25.4144 101.606 25.4155 101.603 25.4166 101.601C25.4178 101.598 25.4189 101.595 25.4201 101.593C25.4212 101.59 25.4224 101.587 25.4235 101.585C25.4247 101.582 25.4258 101.579 25.427 101.577C25.4281 101.574 25.4293 101.571 25.4304 101.569C25.4315 101.566 25.4327 101.563 25.4338 101.561C25.435 101.558 25.4361 101.555 25.4373 101.553C25.4384 101.55 25.4396 101.547 25.4407 101.545C25.4419 101.542 25.443 101.54 25.4441 101.537C25.4453 101.534 25.4464 101.532 25.4476 101.529C25.4487 101.526 25.4499 101.524 25.451 101.521C25.4522 101.518 25.4533 101.516 25.4545 101.513C25.4556 101.51 25.4568 101.508 25.4579 101.505C25.459 101.502 25.4602 101.5 25.4613 101.497C25.4625 101.494 25.4636 101.492 25.4648 101.489C25.4659 101.486 25.4671 101.484 25.4682 101.481C25.4694 101.478 25.4705 101.476 25.4716 101.473C25.4728 101.47 25.4739 101.468 25.4751 101.465C25.4762 101.462 25.4774 101.46 25.4785 101.457C25.4797 101.455 25.4808 101.452 25.482 101.449C25.4831 101.447 25.4843 101.444 25.4854 101.441C25.4865 101.439 25.4877 101.436 25.4888 101.433C25.49 101.431 25.4911 101.428 25.4923 101.425C25.4934 101.423 25.4946 101.42 25.4957 101.417C25.4969 101.415 25.498 101.412 25.4991 101.409C25.5003 101.407 25.5014 101.404 25.5026 101.401C25.5037 101.399 25.5049 101.396 25.506 101.393C25.5072 101.391 25.5083 101.388 25.5095 101.385C25.5106 101.383 25.5118 101.38 25.5129 101.377C25.514 101.375 25.5152 101.372 25.5163 101.37C25.5175 101.367 25.5186 101.364 25.5198 101.362C25.5209 101.359 25.5221 101.356 25.5232 101.354C25.5244 101.351 25.5255 101.348 25.5266 101.346C25.5278 101.343 25.5289 101.34 25.5301 101.338C25.5312 101.335 25.5324 101.332 25.5335 101.33C25.5347 101.327 25.5358 101.324 25.537 101.322C25.5381 101.319 25.5393 101.316 25.5404 101.314C25.5415 101.311 25.5427 101.308 25.5438 101.306C25.545 101.303 25.5461 101.3 25.5473 101.298C25.5484 101.295 25.5496 101.292 25.5507 101.29C25.5519 101.287 25.553 101.285 25.5541 101.282C25.5553 101.279 25.5564 101.277 25.5576 101.274C25.5587 101.271 25.5599 101.269 25.561 101.266C25.5622 101.263 25.5633 101.261 25.5645 101.258C25.5656 101.255 25.5668 101.253 25.5679 101.25C25.569 101.247 25.5702 101.245 25.5713 101.242C25.5725 101.239 25.5736 101.237 25.5748 101.234C25.5759 101.231 25.5771 101.229 25.5782 101.226C25.5794 101.223 25.5805 101.221 25.5817 101.218C25.5828 101.215 25.5839 101.213 25.5851 101.21C25.5862 101.207 25.5874 101.205 25.5885 101.202C25.5897 101.2 25.5908 101.197 25.592 101.194C25.5931 101.192 25.5943 101.189 25.5954 101.186C25.5965 101.184 25.5977 101.181 25.5988 101.178C25.6 101.176 25.6011 101.173 25.6023 101.17C25.6034 101.168 25.6046 101.165 25.6057 101.162C25.6069 101.16 25.608 101.157 25.6092 101.154C25.6103 101.152 25.6114 101.149 25.6126 101.146C25.6137 101.144 25.6149 101.141 25.616 101.138C25.6172 101.136 25.6183 101.133 25.6195 101.13C25.6206 101.128 25.6218 101.125 25.6229 101.122C25.624 101.12 25.6252 101.117 25.6263 101.115C25.6275 101.112 25.6286 101.109 25.6298 101.107C25.6309 101.104 25.6321 101.101 25.6332 101.099C25.6344 101.096 25.6355 101.093 25.6367 101.091C25.6378 101.088 25.6389 101.085 25.6401 101.083C25.6412 101.08 25.6424 101.077 25.6435 101.075C25.6447 101.072 25.6458 101.069 25.647 101.067C25.6481 101.064 25.6493 101.061 25.6504 101.059C25.6515 101.056 25.6527 101.053 25.6538 101.051C25.655 101.048 25.6561 101.045 25.6573 101.043C25.6584 101.04 25.6596 101.037 25.6607 101.035C25.6619 101.032 25.663 101.03 25.6642 101.027C25.6653 101.024 25.6664 101.022 25.6676 101.019C25.6687 101.016 25.6699 101.014 25.671 101.011C25.6722 101.008 25.6733 101.006 25.6745 101.003C25.6756 101 25.6768 100.998 25.6779 100.995C25.679 100.992 25.6802 100.99 25.6813 100.987C25.6825 100.984 25.6836 100.982 25.6848 100.979C25.6859 100.976 25.6871 100.974 25.6882 100.971C25.6894 100.968 25.6905 100.966 25.6917 100.963C25.6928 100.96 25.6939 100.958 25.6951 100.955C25.6962 100.952 25.6974 100.95 25.6985 100.947C25.6997 100.945 25.7008 100.942 25.702 100.939C25.7031 100.937 25.7043 100.934 25.7054 100.931C25.7065 100.929 25.7077 100.926 25.7088 100.923C25.71 100.921 25.7111 100.918 25.7123 100.915C25.7134 100.913 25.7146 100.91 25.7157 100.907C25.7169 100.905 25.718 100.902 25.7192 100.899C25.7203 100.897 25.7214 100.894 25.7226 100.891C25.7237 100.889 25.7249 100.886 25.726 100.883C25.7272 100.881 25.7283 100.878 25.7295 100.875C25.7306 100.873 25.7318 100.87 25.7329 100.867C25.734 100.865 25.7352 100.862 25.7363 100.86C25.7375 100.857 25.7386 100.854 25.7398 100.852C25.7409 100.849 25.7421 100.846 25.7432 100.844C25.7444 100.841 25.7455 100.838 25.7467 100.836C25.7478 100.833 25.7489 100.83 25.7501 100.828C25.7512 100.825 25.7524 100.822 25.7535 100.82C25.7547 100.817 25.7558 100.814 25.757 100.812C25.7581 100.809 25.7593 100.806 25.7604 100.804C25.7615 100.801 25.7627 100.798 25.7638 100.796C25.765 100.793 25.7661 100.79 25.7673 100.788C25.7684 100.785 25.7696 100.782 25.7707 100.78C25.7719 100.777 25.773 100.775 25.7742 100.772C25.7753 100.769 25.7764 100.767 25.7776 100.764C25.7787 100.761 25.7799 100.759 25.781 100.756C25.7822 100.753 25.7833 100.751 25.7845 100.748C25.7856 100.745 25.7868 100.743 25.7879 100.74C25.789 100.737 25.7902 100.735 25.7913 100.732C25.7925 100.729 25.7936 100.727 25.7948 100.724C25.7959 100.721 25.7971 100.719 25.7982 100.716L23.9618 99.9239ZM22.1953 104.019C21.6367 105.376 21.0915 106.679 20.5598 107.928L22.4002 108.712C22.9351 107.454 23.4833 106.144 24.0447 104.781L22.1953 104.019ZM20.5629 107.921C20.0288 109.15 19.5743 110.206 19.1994 111.089L21.0406 111.871C21.4124 110.994 21.8645 109.944 22.3971 108.719L20.5629 107.921ZM20.12 110.48H15.76V112.48H20.12V110.48ZM16.6806 111.089C16.3057 110.206 15.8512 109.15 15.3171 107.921L13.4829 108.719C14.0155 109.944 14.4676 110.994 14.8394 111.871L16.6806 111.089ZM15.3202 107.928C14.7861 106.673 14.2255 105.365 13.6382 104.004L11.8018 104.796C12.3879 106.155 12.9472 107.46 13.4798 108.712L15.3202 107.928ZM13.6447 104.019C13.0826 102.654 12.5071 101.289 11.9182 99.9239L10.0818 100.716C10.6663 102.071 11.2375 103.426 11.7953 104.781L13.6447 104.019ZM11.9182 99.9239C11.3318 98.5645 10.7988 97.3252 10.3191 96.2061L8.48086 96.9939C8.96122 98.1148 9.49487 99.3555 10.0818 100.716L11.9182 99.9239ZM8.4034 96.5176C8.13564 99.7575 7.93479 102.971 7.80088 106.158L9.79912 106.242C9.93188 103.082 10.131 99.8958 10.3966 96.6824L8.4034 96.5176ZM7.80088 106.158C7.66741 109.335 7.56058 112.272 7.48044 114.97L9.47956 115.03C9.55942 112.341 9.66593 109.412 9.79912 106.242L7.80088 106.158ZM8.48 114H2.4V116H8.48V114ZM3.39881 115.049C3.50539 112.864 3.6253 110.532 3.75856 108.054L1.76144 107.946C1.62803 110.428 1.50794 112.763 1.40119 114.951L3.39881 115.049ZM3.75793 108.064C3.91791 105.585 4.0779 103.118 4.23788 100.665L2.24212 100.535C2.0821 102.988 1.92209 105.455 1.76207 107.936L3.75793 108.064ZM4.23718 100.675C4.42342 98.2007 4.6229 95.8336 4.8356 93.5737L2.8444 93.3863C2.63043 95.6597 2.42991 98.0393 2.24282 100.525L4.23718 100.675ZM4.83457 93.5841C5.0735 91.3009 5.32527 89.2477 5.58966 87.4234L3.61034 87.1366C3.34139 88.9923 3.0865 91.0724 2.84543 93.3759L4.83457 93.5841ZM4.6 88.28H10.56V86.28H4.6V88.28ZM48.4184 110.8L48.4684 111.799L48.4684 111.799L48.4184 110.8ZM49.6984 110.68L49.8628 111.666L50.6984 111.527V110.68H49.6984ZM49.6984 106.16H50.6984V105.358L49.9154 105.184L49.6984 106.16ZM45.6984 106.04L45.8089 107.034L45.8317 107.031L45.8544 107.028L45.6984 106.04ZM44.4184 106.4L44.8657 107.294L44.8657 107.294L44.4184 106.4ZM44.1384 110.32L43.6185 111.174L43.64 111.187L43.6622 111.199L44.1384 110.32ZM53.4584 95.72L52.7256 96.4004L52.7321 96.4074L52.7386 96.4141L53.4584 95.72ZM54.9784 98.44L55.9426 98.1748L55.9426 98.1748L54.9784 98.44ZM55.4184 114.4L55.6321 115.377L56.4184 115.205V114.4H55.4184ZM51.8584 115.04L51.7025 114.052L51.694 114.054L51.6856 114.055L51.8584 115.04ZM42.6184 115.08L42.404 116.057L42.4089 116.058L42.6184 115.08ZM39.7784 113.92L39.205 114.739L39.2143 114.746L39.2237 114.752L39.7784 113.92ZM37.9384 111.76L38.8383 111.324L37.9384 111.76ZM38.0184 105.4L37.1586 104.889L37.1526 104.9L37.1469 104.91L38.0184 105.4ZM40.0184 103.36L40.541 104.213L40.541 104.213L40.0184 103.36ZM42.8584 102.28L43.0546 103.261L43.0663 103.258L43.078 103.256L42.8584 102.28ZM48.2184 102.04L48.0833 103.031L48.1075 103.034L48.1318 103.036L48.2184 102.04ZM49.6984 102.28L49.4237 103.242L50.6984 103.606V102.28H49.6984ZM42.5784 98.6L42.7124 99.591L42.7255 99.5892L42.7385 99.5871L42.5784 98.6ZM40.0184 99.2L39.0307 99.3564L39.2216 100.562L40.3658 100.138L40.0184 99.2ZM39.2584 94.4L38.9644 93.4442L38.1351 93.6994L38.2707 94.5564L39.2584 94.4ZM40.5384 94.08L40.7444 95.0586L40.7628 95.0547L40.781 95.0501L40.5384 94.08ZM42.2584 93.76L42.3878 94.7516L42.4088 94.7489L42.4298 94.7452L42.2584 93.76ZM44.1784 93.52L44.2582 94.5168L44.2757 94.5154L44.2931 94.5134L44.1784 93.52ZM46.7384 111.84C47.3402 111.84 47.9169 111.826 48.4684 111.799L48.3685 109.801C47.8533 109.827 47.3101 109.84 46.7384 109.84V111.84ZM48.4684 111.799C49.019 111.771 49.4887 111.729 49.8628 111.666L49.534 109.694C49.2682 109.738 48.8845 109.775 48.3685 109.801L48.4684 111.799ZM50.6984 110.68V106.16H48.6984V110.68H50.6984ZM49.9154 105.184C49.621 105.118 49.2175 105.06 48.7289 105.006L48.508 106.994C48.9793 107.046 49.2959 107.095 49.4815 107.136L49.9154 105.184ZM48.7289 105.006C48.2194 104.95 47.742 104.92 47.2984 104.92V106.92C47.6549 106.92 48.0574 106.944 48.508 106.994L48.7289 105.006ZM47.2984 104.92C46.6909 104.92 46.1052 104.963 45.5425 105.052L45.8544 107.028C46.305 106.957 46.786 106.92 47.2984 106.92V104.92ZM45.588 105.046C45.0089 105.11 44.4652 105.259 43.9712 105.506L44.8657 107.294C45.1183 107.168 45.428 107.076 45.8089 107.034L45.588 105.046ZM43.9712 105.506C43.4559 105.763 43.0244 106.128 42.7064 106.605L44.3705 107.715C44.4791 107.552 44.6343 107.41 44.8657 107.294L43.9712 105.506ZM42.7064 106.605C42.3592 107.126 42.2184 107.732 42.2184 108.36H44.2184C44.2184 108.028 44.291 107.834 44.3705 107.715L42.7064 106.605ZM42.2184 108.36C42.2184 109.523 42.6178 110.565 43.6185 111.174L44.6584 109.466C44.4324 109.328 44.2184 109.063 44.2184 108.36H42.2184ZM43.6622 111.199C44.5037 111.655 45.5556 111.84 46.7384 111.84V109.84C45.7346 109.84 45.0532 109.678 44.6147 109.441L43.6622 111.199ZM46.2584 94.4C47.9509 94.4 49.2999 94.5934 50.3358 94.9465L50.9811 93.0535C49.6703 92.6066 48.086 92.4 46.2584 92.4V94.4ZM50.3358 94.9465C51.3861 95.3046 52.1668 95.7986 52.7256 96.4004L54.1912 95.0395C53.3634 94.148 52.2774 93.4954 50.9811 93.0535L50.3358 94.9465ZM52.7386 96.4141C53.3349 97.0325 53.7622 97.7886 54.0142 98.7052L55.9426 98.1748C55.608 96.9581 55.022 95.9008 54.1783 95.0259L52.7386 96.4141ZM54.0142 98.7052C54.28 99.6715 54.4184 100.767 54.4184 102H56.4184C56.4184 100.619 56.2636 99.3418 55.9426 98.1748L54.0142 98.7052ZM54.4184 102V114.4H56.4184V102H54.4184ZM55.2047 113.423C54.3796 113.604 53.2153 113.813 51.7025 114.052L52.0144 116.028C53.5416 115.787 54.7506 115.57 55.6321 115.377L55.2047 113.423ZM51.6856 114.055C50.2402 114.309 48.4615 114.44 46.3384 114.44V116.44C48.5353 116.44 50.4367 116.305 52.0312 116.025L51.6856 114.055ZM46.3384 114.44C45.0362 114.44 43.8677 114.325 42.828 114.102L42.4089 116.058C43.6092 116.315 44.9207 116.44 46.3384 116.44V114.44ZM42.8328 114.103C41.8413 113.886 41.0142 113.542 40.3331 113.088L39.2237 114.752C40.1427 115.365 41.2089 115.794 42.404 116.057L42.8328 114.103ZM40.3519 113.101C39.6918 112.639 39.1907 112.051 38.8383 111.324L37.0386 112.196C37.5395 113.229 38.2651 114.081 39.205 114.739L40.3519 113.101ZM38.8383 111.324C38.4946 110.615 38.2984 109.694 38.2984 108.52H36.2984C36.2984 109.906 36.5289 111.145 37.0386 112.196L38.8383 111.324ZM38.2984 108.52C38.2984 107.422 38.513 106.561 38.89 105.89L37.1469 104.91C36.5639 105.946 36.2984 107.164 36.2984 108.52H38.2984ZM38.8783 105.911C39.304 105.194 39.8562 104.632 40.541 104.213L39.4959 102.507C38.5273 103.101 37.7462 103.9 37.1586 104.889L38.8783 105.911ZM40.541 104.213C41.2558 103.775 42.0894 103.454 43.0546 103.261L42.6623 101.299C41.4941 101.533 40.4344 101.932 39.4959 102.507L40.541 104.213ZM43.078 103.256C44.0692 103.033 45.102 102.92 46.1784 102.92V100.92C44.9615 100.92 43.7811 101.047 42.6389 101.304L43.078 103.256ZM46.1784 102.92C46.9194 102.92 47.5526 102.958 48.0833 103.031L48.3536 101.049C47.711 100.962 46.9841 100.92 46.1784 100.92V102.92ZM48.1318 103.036C48.7138 103.087 49.1367 103.16 49.4237 103.242L49.9732 101.318C49.5135 101.187 48.9497 101.1 48.3051 101.044L48.1318 103.036ZM50.6984 102.28V101.72H48.6984V102.28H50.6984ZM50.6984 101.72C50.6984 100.49 50.3179 99.4053 49.4855 98.5729L48.0713 99.9871C48.4656 100.381 48.6984 100.924 48.6984 101.72H50.6984ZM49.4855 98.5729C48.5855 97.6729 47.1792 97.36 45.5784 97.36V99.36C47.0177 99.36 47.7447 99.6605 48.0713 99.9871L49.4855 98.5729ZM45.5784 97.36C44.5122 97.36 43.4587 97.4442 42.4184 97.6129L42.7385 99.5871C43.6715 99.4358 44.618 99.36 45.5784 99.36V97.36ZM42.4445 97.609C41.4052 97.7495 40.4769 97.9638 39.6711 98.2623L40.3658 100.138C41 99.9029 41.7783 99.7172 42.7124 99.591L42.4445 97.609ZM41.0061 99.0436L40.2461 94.2436L38.2707 94.5564L39.0307 99.3564L41.0061 99.0436ZM39.5525 95.3558C39.8609 95.2609 40.2561 95.1614 40.7444 95.0586L40.3324 93.1014C39.8075 93.212 39.3493 93.3258 38.9644 93.4442L39.5525 95.3558ZM40.781 95.0501C41.2727 94.9272 41.8079 94.8272 42.3878 94.7516L42.1291 92.7684C41.4823 92.8528 40.8708 92.9661 40.2959 93.1099L40.781 95.0501ZM42.4298 94.7452C43.0106 94.6442 43.62 94.5679 44.2582 94.5168L44.0987 92.5232C43.4036 92.5788 42.7329 92.6625 42.0871 92.7748L42.4298 94.7452ZM44.2931 94.5134C44.9486 94.4378 45.6037 94.4 46.2584 94.4V92.4C45.5265 92.4 44.7949 92.4422 44.0638 92.5266L44.2931 94.5134ZM60.6078 88.72L60.4488 87.7327L59.6078 87.8682V88.72H60.6078ZM66.5678 87.76H67.5678V86.586L66.4088 86.7727L66.5678 87.76ZM66.5678 93.96H65.5678V94.96H66.5678V93.96ZM73.7278 93.96H74.7278V92.96H73.7278V93.96ZM73.7278 98.92V99.92H74.7278V98.92H73.7278ZM66.5678 98.92V97.92H65.5678V98.92H66.5678ZM67.2078 109.32L66.3396 109.816L66.3461 109.828L66.353 109.839L67.2078 109.32ZM71.8478 110.28L72.0058 111.267L72.0213 111.265L72.0367 111.262L71.8478 110.28ZM73.7278 109.76L74.7118 109.582L74.4973 108.397L73.3718 108.826L73.7278 109.76ZM74.5678 114.4L74.9451 115.326L75.6963 115.02L75.5518 114.222L74.5678 114.4ZM72.1678 115.16L71.9322 114.188L71.9322 114.188L72.1678 115.16ZM64.8878 114.84L64.4967 115.76L64.5065 115.765L64.5164 115.768L64.8878 114.84ZM62.3278 113L61.5469 113.625L61.5521 113.631L61.5574 113.638L62.3278 113ZM60.9678 110.12L59.99 110.33L59.9924 110.341L59.995 110.352L60.9678 110.12ZM60.7668 89.7073L66.7268 88.7473L66.4088 86.7727L60.4488 87.7327L60.7668 89.7073ZM65.5678 87.76V93.96H67.5678V87.76H65.5678ZM66.5678 94.96H73.7278V92.96H66.5678V94.96ZM72.7278 93.96V98.92H74.7278V93.96H72.7278ZM73.7278 97.92H66.5678V99.92H73.7278V97.92ZM65.5678 98.92V106.32H67.5678V98.92H65.5678ZM65.5678 106.32C65.5678 107.673 65.7959 108.865 66.3396 109.816L68.0761 108.824C67.7664 108.282 67.5678 107.474 67.5678 106.32H65.5678ZM66.353 109.839C67.0706 111.021 68.4018 111.44 69.8878 111.44V109.44C68.7072 109.44 68.2517 109.113 68.0626 108.801L66.353 109.839ZM69.8878 111.44C70.5835 111.44 71.2897 111.382 72.0058 111.267L71.6898 109.293C71.0726 109.391 70.4721 109.44 69.8878 109.44V111.44ZM72.0367 111.262C72.7772 111.12 73.461 110.932 74.0838 110.694L73.3718 108.826C72.8746 109.015 72.3051 109.174 71.659 109.298L72.0367 111.262ZM72.7438 109.938L73.5838 114.578L75.5518 114.222L74.7118 109.582L72.7438 109.938ZM74.1905 113.474C73.5233 113.746 72.7716 113.985 71.9322 114.188L72.4034 116.132C73.3241 115.909 74.1723 115.641 74.9451 115.326L74.1905 113.474ZM71.9322 114.188C71.1538 114.377 70.1583 114.48 68.9278 114.48V116.48C70.2573 116.48 71.4218 116.37 72.4034 116.132L71.9322 114.188ZM68.9278 114.48C67.3795 114.48 66.1696 114.276 65.2592 113.912L64.5164 115.768C65.7394 116.258 67.2228 116.48 68.9278 116.48V114.48ZM65.279 113.92C64.3367 113.519 63.6215 112.995 63.0982 112.362L61.5574 113.638C62.3141 114.552 63.3056 115.254 64.4967 115.76L65.279 113.92ZM63.1087 112.375C62.5717 111.704 62.1774 110.883 61.9406 109.888L59.995 110.352C60.2916 111.597 60.8039 112.696 61.5469 113.625L63.1087 112.375ZM61.9456 109.91C61.7228 108.871 61.6078 107.702 61.6078 106.4H59.6078C59.6078 107.818 59.7328 109.129 59.99 110.33L61.9456 109.91ZM61.6078 106.4V88.72H59.6078V106.4H61.6078ZM78.5813 115H77.5813V116H78.5813V115ZM78.5813 84.92L78.4222 83.9327L77.5813 84.0682V84.92H78.5813ZM84.5413 83.96H85.5413V82.786L84.3822 82.9727L84.5413 83.96ZM84.5413 94.04H83.5413V95.4274L84.8575 94.9887L84.5413 94.04ZM86.0612 93.68L86.2326 94.6652L86.2489 94.6624L86.2652 94.659L86.0612 93.68ZM92.1413 94.2L91.7473 95.1191L91.7604 95.1247L91.7736 95.13L92.1413 94.2ZM94.8613 96.16L94.0732 96.7756L94.0791 96.7832L94.0851 96.7906L94.8613 96.16ZM96.3013 99.2L95.3261 99.4216L95.3285 99.4321L95.3311 99.4425L96.3013 99.2ZM96.7413 115V116H97.7413V115H96.7413ZM90.7813 115H89.7813V116H90.7813V115ZM90.0213 99.76L89.1638 100.274L89.17 100.285L89.1764 100.295L90.0213 99.76ZM85.7812 98.72L85.955 99.7048L85.9767 99.701L85.9982 99.6962L85.7812 98.72ZM84.5413 99L84.2665 98.0385L83.5413 98.2457V99H84.5413ZM84.5413 115V116H85.5413V115H84.5413ZM79.5813 115V84.92H77.5813V115H79.5813ZM78.7403 85.9073L84.7003 84.9473L84.3822 82.9727L78.4222 83.9327L78.7403 85.9073ZM83.5413 83.96V94.04H85.5413V83.96H83.5413ZM84.8575 94.9887C85.1936 94.8766 85.6476 94.767 86.2326 94.6652L85.8899 92.6948C85.2482 92.8064 84.6889 92.9367 84.225 93.0913L84.8575 94.9887ZM86.2652 94.659C86.8456 94.5381 87.3904 94.48 87.9013 94.48V92.48C87.2388 92.48 86.5569 92.5553 85.8573 92.701L86.2652 94.659ZM87.9013 94.48C89.523 94.48 90.7911 94.7093 91.7473 95.1191L92.5352 93.2809C91.2514 92.7307 89.6929 92.48 87.9013 92.48V94.48ZM91.7736 95.13C92.778 95.5271 93.5307 96.0812 94.0732 96.7756L95.6493 95.5444C94.8585 94.5321 93.7978 93.7796 92.5089 93.27L91.7736 95.13ZM94.0851 96.7906C94.6727 97.5138 95.0902 98.3837 95.3261 99.4216L97.2764 98.9784C96.9789 97.6696 96.4365 96.5129 95.6374 95.5294L94.0851 96.7906ZM95.3311 99.4425C95.6013 100.523 95.7413 101.747 95.7413 103.12H97.7413C97.7413 101.613 97.5879 100.223 97.2714 98.9575L95.3311 99.4425ZM95.7413 103.12V115H97.7413V103.12H95.7413ZM96.7413 114H90.7813V116H96.7413V114ZM91.7813 115V103.84H89.7813V115H91.7813ZM91.7813 103.84C91.7813 101.89 91.5346 100.28 90.8661 99.2249L89.1764 100.295C89.5213 100.84 89.7813 101.95 89.7813 103.84H91.7813ZM90.8787 99.2455C90.1465 98.0251 88.8199 97.56 87.3013 97.56V99.56C88.4493 99.56 88.936 99.8949 89.1638 100.274L90.8787 99.2455ZM87.3013 97.56C86.7011 97.56 86.1213 97.62 85.5643 97.7438L85.9982 99.6962C86.4012 99.6066 86.8348 99.56 87.3013 99.56V97.56ZM85.6075 97.7352C85.1261 97.8202 84.6785 97.9208 84.2665 98.0385L84.816 99.9615C85.1507 99.8659 85.5297 99.7798 85.955 99.7048L85.6075 97.7352ZM83.5413 99V115H85.5413V99H83.5413ZM84.5413 114H78.5813V116H84.5413V114ZM119.256 87.28V86.28H118.256V87.28H119.256ZM125.496 87.28H126.496V86.28H125.496V87.28ZM125.496 115V116H126.496V115H125.496ZM119.256 115H118.256V116H119.256V115ZM119.256 103.24H120.256V102.24H119.256V103.24ZM108.776 103.24V102.24H107.776V103.24H108.776ZM108.776 115V116H109.776V115H108.776ZM102.536 115H101.536V116H102.536V115ZM102.536 87.28V86.28H101.536V87.28H102.536ZM108.776 87.28H109.776V86.28H108.776V87.28ZM108.776 97.88H107.776V98.88H108.776V97.88ZM119.256 97.88V98.88H120.256V97.88H119.256ZM119.256 88.28H125.496V86.28H119.256V88.28ZM124.496 87.28V115H126.496V87.28H124.496ZM125.496 114H119.256V116H125.496V114ZM120.256 115V103.24H118.256V115H120.256ZM119.256 102.24H108.776V104.24H119.256V102.24ZM107.776 103.24V115H109.776V103.24H107.776ZM108.776 114H102.536V116H108.776V114ZM103.536 115V87.28H101.536V115H103.536ZM102.536 88.28H108.776V86.28H102.536V88.28ZM107.776 87.28V97.88H109.776V87.28H107.776ZM108.776 98.88H119.256V96.88H108.776V98.88ZM120.256 97.88V87.28H118.256V97.88H120.256ZM131.351 99.76L130.427 99.3766L130.424 99.3855L131.351 99.76ZM133.631 96.24L132.924 95.5329L132.924 95.5329L133.631 96.24ZM136.831 94.12L136.467 93.1887L136.46 93.1915L136.831 94.12ZM147.671 96.16L146.943 96.8457L146.948 96.851L147.671 96.16ZM150.231 105.36L151.229 105.427L151.229 105.422L150.231 105.36ZM150.151 106.44V107.44H151.071L151.147 106.523L150.151 106.44ZM136.631 106.44V105.44H135.516L135.637 106.548L136.631 106.44ZM138.351 109.36L137.772 110.175L137.772 110.175L138.351 109.36ZM145.631 110.16L145.808 111.144L145.817 111.143L145.827 111.141L145.631 110.16ZM148.231 109.4L149.218 109.237L149.007 107.966L147.828 108.485L148.231 109.4ZM149.031 114.24L149.478 115.134L150.138 114.805L150.018 114.077L149.031 114.24ZM147.751 114.72L147.464 113.762L147.464 113.762L147.751 114.72ZM145.951 115.12L145.793 114.133L145.77 114.136L145.747 114.141L145.951 115.12ZM143.871 115.44L143.977 116.434L143.977 116.434L143.871 115.44ZM136.671 114.72L136.296 115.647L136.303 115.65L136.671 114.72ZM133.191 112.44L132.455 113.117L132.464 113.127L132.474 113.137L133.191 112.44ZM131.151 108.96L130.199 109.265L130.201 109.273L130.204 109.282L131.151 108.96ZM144.511 102.36V103.36H145.565L145.51 102.307L144.511 102.36ZM144.231 100.88L143.267 101.148L143.274 101.172L143.282 101.196L144.231 100.88ZM143.551 99.6L142.765 100.218L142.778 100.235L142.792 100.251L143.551 99.6ZM142.391 98.68L141.923 99.5638L141.933 99.5692L141.944 99.5744L142.391 98.68ZM138.951 98.68L139.357 99.5938L139.378 99.5846L139.398 99.5744L138.951 98.68ZM136.991 100.88L136.053 100.534L136.047 100.549L136.042 100.564L136.991 100.88ZM136.631 102.36L135.643 102.204L135.461 103.36H136.631V102.36ZM131.511 104.64C131.511 102.871 131.777 101.377 132.278 100.134L130.424 99.3855C129.805 100.917 129.511 102.676 129.511 104.64H131.511ZM132.275 100.143C132.819 98.832 133.511 97.7742 134.338 96.9471L132.924 95.5329C131.884 96.5725 131.056 97.8613 130.427 99.3766L132.275 100.143ZM134.338 96.9471C135.178 96.1074 136.131 95.4771 137.202 95.0485L136.46 93.1915C135.131 93.7229 133.951 94.5059 132.924 95.5329L134.338 96.9471ZM137.195 95.0512C138.309 94.6153 139.439 94.4 140.591 94.4V92.4C139.183 92.4 137.806 92.6647 136.467 93.1888L137.195 95.0512ZM140.591 94.4C143.356 94.4 145.433 95.2427 146.943 96.8457L148.399 95.4743C146.442 93.3973 143.799 92.4 140.591 92.4V94.4ZM146.948 96.851C148.441 98.4131 149.271 100.804 149.271 104.2H151.271C151.271 100.503 150.367 97.5336 148.394 95.469L146.948 96.851ZM149.271 104.2C149.271 104.522 149.259 104.887 149.233 105.298L151.229 105.422C151.257 104.98 151.271 104.572 151.271 104.2H149.271ZM149.233 105.293C149.207 105.689 149.181 106.044 149.154 106.357L151.147 106.523C151.175 106.196 151.202 105.831 151.229 105.427L149.233 105.293ZM150.151 105.44H136.631V107.44H150.151V105.44ZM135.637 106.548C135.801 108.061 136.527 109.291 137.772 110.175L138.93 108.545C138.148 107.989 137.727 107.272 137.625 106.332L135.637 106.548ZM137.772 110.175C139.007 111.053 140.592 111.44 142.431 111.44V109.44C140.856 109.44 139.722 109.107 138.93 108.545L137.772 110.175ZM142.431 111.44C143.581 111.44 144.707 111.342 145.808 111.144L145.454 109.176C144.475 109.352 143.467 109.44 142.431 109.44V111.44ZM145.827 111.141C146.934 110.919 147.877 110.648 148.634 110.315L147.828 108.485C147.252 108.738 146.462 108.974 145.435 109.179L145.827 111.141ZM147.244 109.563L148.044 114.403L150.018 114.077L149.218 109.237L147.244 109.563ZM148.584 113.346C148.335 113.47 147.969 113.611 147.464 113.762L148.038 115.678C148.6 115.509 149.087 115.33 149.478 115.134L148.584 113.346ZM147.464 113.762C146.98 113.907 146.425 114.031 145.793 114.133L146.109 116.107C146.81 115.995 147.455 115.853 148.038 115.678L147.464 113.762ZM145.747 114.141C145.143 114.267 144.483 114.369 143.764 114.446L143.977 116.434C144.752 116.351 145.478 116.24 146.155 116.099L145.747 114.141ZM143.764 114.446C143.053 114.522 142.342 114.56 141.631 114.56V116.56C142.413 116.56 143.196 116.518 143.977 116.434L143.764 114.446ZM141.631 114.56C139.834 114.56 138.31 114.294 137.039 113.79L136.303 115.65C137.858 116.266 139.641 116.56 141.631 116.56V114.56ZM137.045 113.793C135.773 113.279 134.734 112.592 133.908 111.743L132.474 113.137C133.515 114.208 134.796 115.041 136.296 115.647L137.045 113.793ZM133.927 111.763C133.119 110.884 132.509 109.847 132.098 108.638L130.204 109.282C130.7 110.74 131.449 112.022 132.455 113.117L133.927 111.763ZM132.103 108.655C131.711 107.43 131.511 106.094 131.511 104.64H129.511C129.511 106.279 129.737 107.823 130.199 109.265L132.103 108.655ZM145.51 102.307C145.478 101.711 145.368 101.129 145.18 100.564L143.282 101.196C143.414 101.591 143.49 101.995 143.512 102.413L145.51 102.307ZM145.194 100.612C145.022 99.9931 144.727 99.4353 144.31 98.9492L142.792 100.251C143.015 100.511 143.173 100.807 143.267 101.148L145.194 100.612ZM144.337 98.9822C143.941 98.4785 143.433 98.083 142.838 97.7856L141.944 99.5744C142.309 99.757 142.574 99.9749 142.765 100.218L144.337 98.9822ZM142.859 97.7962C142.22 97.4578 141.473 97.32 140.671 97.32V99.32C141.256 99.32 141.656 99.4222 141.923 99.5638L142.859 97.7962ZM140.671 97.32C139.886 97.32 139.152 97.4614 138.504 97.7856L139.398 99.5744C139.71 99.4186 140.123 99.32 140.671 99.32V97.32ZM138.545 97.7662C137.938 98.0357 137.415 98.4155 136.992 98.9092L138.51 100.211C138.727 99.9579 139.003 99.751 139.357 99.5938L138.545 97.7662ZM136.992 98.9092C136.587 99.3812 136.276 99.927 136.053 100.534L137.929 101.226C138.079 100.82 138.275 100.485 138.51 100.211L136.992 98.9092ZM136.042 100.564C135.865 101.097 135.732 101.644 135.643 102.204L137.619 102.516C137.69 102.063 137.797 101.623 137.94 101.196L136.042 100.564ZM136.631 103.36H144.511V101.36H136.631V103.36ZM163.27 115.4L163.255 116.4L164.112 116.413L164.256 115.568L163.27 115.4ZM159.03 114.84L158.721 115.791L158.728 115.793L159.03 114.84ZM156.47 113.4L155.748 114.092L155.763 114.107L155.778 114.122L156.47 113.4ZM155.19 111.12L154.217 111.349L154.221 111.366L154.226 111.383L155.19 111.12ZM154.87 84.92L154.711 83.9327L153.87 84.0682V84.92H154.87ZM160.83 83.96H161.83V82.786L160.671 82.9727L160.83 83.96ZM160.95 108.32L161.933 108.136L161.933 108.136L160.95 108.32ZM161.39 109.4L160.582 109.988L160.598 110.011L160.616 110.033L161.39 109.4ZM162.39 110.12L162.791 109.204L162.791 109.204L162.39 110.12ZM164.11 110.48L165.096 110.648L165.281 109.564L164.184 109.483L164.11 110.48ZM163.286 114.4C161.605 114.374 160.299 114.193 159.333 113.887L158.728 115.793C159.949 116.18 161.469 116.372 163.255 116.4L163.286 114.4ZM159.339 113.889C158.379 113.577 157.669 113.163 157.162 112.678L155.778 114.122C156.552 114.863 157.548 115.41 158.721 115.791L159.339 113.889ZM157.192 112.708C156.698 112.192 156.353 111.581 156.155 110.857L154.226 111.383C154.508 112.419 155.016 113.328 155.748 114.092L157.192 112.708ZM156.164 110.891C155.971 110.073 155.87 109.138 155.87 108.08H153.87C153.87 109.262 153.983 110.354 154.217 111.349L156.164 110.891ZM155.87 108.08V84.92H153.87V108.08H155.87ZM155.029 85.9073L160.989 84.9473L160.671 82.9727L154.711 83.9327L155.029 85.9073ZM159.83 83.96V106.88H161.83V83.96H159.83ZM159.83 106.88C159.83 107.462 159.874 108.005 159.967 108.504L161.933 108.136C161.867 107.782 161.83 107.365 161.83 106.88H159.83ZM159.967 108.504C160.069 109.048 160.265 109.553 160.582 109.988L162.199 108.812C162.089 108.66 161.991 108.445 161.933 108.136L159.967 108.504ZM160.616 110.033C160.977 110.474 161.45 110.8 161.989 111.036L162.791 109.204C162.477 109.066 162.284 108.913 162.164 108.767L160.616 110.033ZM161.989 111.036C162.561 111.286 163.259 111.42 164.036 111.477L164.184 109.483C163.522 109.434 163.073 109.327 162.791 109.204L161.989 111.036ZM163.125 110.312L162.285 115.232L164.256 115.568L165.096 110.648L163.125 110.312ZM179.767 100.24L178.962 100.834L178.969 100.843L179.767 100.24ZM174.607 98.64L174.665 99.6383L174.694 99.6366L174.723 99.6332L174.607 98.64ZM173.487 98.76L173.308 97.7761L172.487 97.9254V98.76H173.487ZM173.487 109.52H172.487V110.066L172.946 110.361L173.487 109.52ZM174.927 110.12L174.663 111.085L174.674 111.088L174.927 110.12ZM186.487 108.92L185.529 108.633L185.529 108.633L186.487 108.92ZM184.727 112.36L183.948 111.733L183.948 111.733L184.727 112.36ZM181.847 114.6L182.268 115.507L182.268 115.507L181.847 114.6ZM175.567 115.16L175.783 114.184L175.783 114.184L175.567 115.16ZM173.487 114.48L173.889 113.565L172.487 112.947V114.48H173.487ZM173.487 122.4V123.4H174.487V122.4H173.487ZM167.527 122.4H166.527V123.4H167.527V122.4ZM167.527 94.68L167.239 93.7222L166.527 93.936V94.68H167.527ZM169.367 94.24L169.555 95.222L169.573 95.2185L169.591 95.2144L169.367 94.24ZM171.527 93.84L171.39 92.8494L171.385 92.85L171.527 93.84ZM173.847 93.6L173.915 94.5976L173.931 94.5966L173.946 94.595L173.847 93.6ZM180.767 94.28L180.401 95.211L180.409 95.2141L180.417 95.2171L180.767 94.28ZM184.207 96.48L183.489 97.1771L183.499 97.1871L184.207 96.48ZM186.327 99.92L185.384 100.253L185.386 100.261L185.389 100.269L186.327 99.92ZM182.007 104.64C182.007 102.656 181.561 100.955 180.564 99.6369L178.969 100.843C179.626 101.712 180.007 102.944 180.007 104.64H182.007ZM180.571 99.6461C179.523 98.2254 177.97 97.56 176.087 97.56V99.56C177.457 99.56 178.357 100.015 178.962 100.834L180.571 99.6461ZM176.087 97.56C175.52 97.56 174.988 97.5883 174.49 97.6468L174.723 99.6332C175.132 99.5851 175.586 99.56 176.087 99.56V97.56ZM174.548 97.6417C174.073 97.6697 173.656 97.7129 173.308 97.7761L173.665 99.7439C173.904 99.7005 174.234 99.6637 174.665 99.6383L174.548 97.6417ZM172.487 98.76V109.52H174.487V98.76H172.487ZM172.946 110.361C173.43 110.672 174.012 110.907 174.663 111.085L175.19 109.155C174.668 109.013 174.29 108.848 174.027 108.679L172.946 110.361ZM174.674 111.088C175.367 111.268 176.065 111.36 176.767 111.36V109.36C176.241 109.36 175.713 109.292 175.179 109.152L174.674 111.088ZM176.767 111.36C178.428 111.36 179.817 110.784 180.75 109.525C181.641 108.323 182.007 106.641 182.007 104.64H180.007C180.007 106.452 179.666 107.63 179.143 108.335C178.662 108.983 177.931 109.36 176.767 109.36V111.36ZM186.087 104.48C186.087 106.025 185.897 107.407 185.529 108.633L187.444 109.207C187.877 107.767 188.087 106.188 188.087 104.48H186.087ZM185.529 108.633C185.161 109.858 184.63 110.886 183.948 111.733L185.505 112.987C186.37 111.914 187.012 110.649 187.444 109.207L185.529 108.633ZM183.948 111.733C183.273 112.57 182.436 113.223 181.425 113.693L182.268 115.507C183.55 114.911 184.633 114.07 185.505 112.987L183.948 111.733ZM181.425 113.693C180.432 114.155 179.26 114.4 177.887 114.4V116.4C179.5 116.4 180.968 116.112 182.268 115.507L181.425 113.693ZM177.887 114.4C177.124 114.4 176.424 114.326 175.783 114.184L175.35 116.136C176.149 116.314 176.996 116.4 177.887 116.4V114.4ZM175.783 114.184C175.126 114.038 174.495 113.831 173.889 113.565L173.084 115.395C173.811 115.715 174.567 115.962 175.35 116.136L175.783 114.184ZM172.487 114.48V122.4H174.487V114.48H172.487ZM173.487 121.4H167.527V123.4H173.487V121.4ZM168.527 122.4V94.68H166.527V122.4H168.527ZM167.814 95.6378C168.308 95.4897 168.887 95.3506 169.555 95.222L169.178 93.258C168.459 93.3961 167.812 93.5503 167.239 93.7222L167.814 95.6378ZM169.591 95.2144C170.256 95.0611 170.948 94.9328 171.668 94.8299L171.385 92.85C170.612 92.9605 169.864 93.0989 169.142 93.2656L169.591 95.2144ZM171.663 94.8306C172.414 94.727 173.165 94.6494 173.915 94.5976L173.778 92.6024C172.982 92.6573 172.186 92.7396 171.39 92.8494L171.663 94.8306ZM173.946 94.595C174.717 94.518 175.443 94.48 176.127 94.48V92.48C175.37 92.48 174.576 92.522 173.747 92.605L173.946 94.595ZM176.127 94.48C177.758 94.48 179.177 94.7309 180.401 95.211L181.132 93.349C179.636 92.7624 177.962 92.48 176.127 92.48V94.48ZM180.417 95.2171C181.65 95.6764 182.668 96.3321 183.49 97.1771L184.924 95.7829C183.878 94.7079 182.603 93.8969 181.116 93.3429L180.417 95.2171ZM183.499 97.1871C184.318 98.0054 184.949 99.0204 185.384 100.253L187.27 99.5872C186.745 98.0996 185.962 96.8213 184.914 95.7729L183.499 97.1871ZM185.389 100.269C185.849 101.501 186.087 102.901 186.087 104.48H188.087C188.087 102.699 187.818 101.059 187.264 99.5709L185.389 100.269ZM191.507 99.76L190.584 99.3766L190.58 99.3855L191.507 99.76ZM193.787 96.24L193.08 95.5329L193.08 95.5329L193.787 96.24ZM196.987 94.12L196.623 93.1887L196.616 93.1915L196.987 94.12ZM207.827 96.16L207.099 96.8457L207.104 96.851L207.827 96.16ZM210.387 105.36L211.385 105.427L211.385 105.422L210.387 105.36ZM210.307 106.44V107.44H211.227L211.304 106.523L210.307 106.44ZM196.787 106.44V105.44H195.673L195.793 106.548L196.787 106.44ZM198.507 109.36L197.928 110.175L197.928 110.175L198.507 109.36ZM205.787 110.16L205.964 111.144L205.974 111.143L205.983 111.141L205.787 110.16ZM208.387 109.4L209.374 109.237L209.164 107.966L207.984 108.485L208.387 109.4ZM209.187 114.24L209.634 115.134L210.294 114.805L210.174 114.077L209.187 114.24ZM207.907 114.72L207.62 113.762L207.62 113.762L207.907 114.72ZM206.107 115.12L205.949 114.133L205.926 114.136L205.903 114.141L206.107 115.12ZM204.027 115.44L204.134 116.434L204.134 116.434L204.027 115.44ZM196.827 114.72L196.453 115.647L196.459 115.65L196.827 114.72ZM193.347 112.44L192.611 113.117L192.62 113.127L192.63 113.137L193.347 112.44ZM191.307 108.96L190.355 109.265L190.358 109.273L190.36 109.282L191.307 108.96ZM204.667 102.36V103.36H205.721L205.666 102.307L204.667 102.36ZM204.387 100.88L203.424 101.148L203.43 101.172L203.439 101.196L204.387 100.88ZM203.707 99.6L202.921 100.218L202.934 100.235L202.948 100.251L203.707 99.6ZM202.547 98.68L202.079 99.5638L202.09 99.5692L202.1 99.5744L202.547 98.68ZM199.107 98.68L199.513 99.5938L199.534 99.5846L199.554 99.5744L199.107 98.68ZM197.147 100.88L196.209 100.534L196.203 100.549L196.199 100.564L197.147 100.88ZM196.787 102.36L195.799 102.204L195.617 103.36H196.787V102.36ZM191.667 104.64C191.667 102.871 191.933 101.377 192.434 100.134L190.58 99.3855C189.962 100.917 189.667 102.676 189.667 104.64H191.667ZM192.431 100.143C192.975 98.832 193.667 97.7742 194.494 96.9471L193.08 95.5329C192.041 96.5725 191.213 97.8613 190.584 99.3766L192.431 100.143ZM194.494 96.9471C195.334 96.1074 196.287 95.4771 197.359 95.0485L196.616 93.1915C195.287 93.7229 194.107 94.5059 193.08 95.5329L194.494 96.9471ZM197.352 95.0512C198.466 94.6153 199.596 94.4 200.747 94.4V92.4C199.339 92.4 197.962 92.6647 196.623 93.1888L197.352 95.0512ZM200.747 94.4C203.513 94.4 205.589 95.2427 207.099 96.8457L208.555 95.4743C206.599 93.3973 203.955 92.4 200.747 92.4V94.4ZM207.104 96.851C208.598 98.4131 209.427 100.804 209.427 104.2H211.427C211.427 100.503 210.524 97.5336 208.55 95.469L207.104 96.851ZM209.427 104.2C209.427 104.522 209.415 104.887 209.389 105.298L211.385 105.422C211.413 104.98 211.427 104.572 211.427 104.2H209.427ZM209.389 105.293C209.363 105.689 209.337 106.044 209.311 106.357L211.304 106.523C211.331 106.196 211.358 105.831 211.385 105.427L209.389 105.293ZM210.307 105.44H196.787V107.44H210.307V105.44ZM195.793 106.548C195.958 108.061 196.684 109.291 197.928 110.175L199.086 108.545C198.304 107.989 197.884 107.272 197.781 106.332L195.793 106.548ZM197.928 110.175C199.163 111.053 200.749 111.44 202.587 111.44V109.44C201.012 109.44 199.878 109.107 199.086 108.545L197.928 110.175ZM202.587 111.44C203.738 111.44 204.864 111.342 205.964 111.144L205.611 109.176C204.631 109.352 203.623 109.44 202.587 109.44V111.44ZM205.983 111.141C207.09 110.919 208.033 110.648 208.79 110.315L207.984 108.485C207.408 108.738 206.618 108.974 205.591 109.179L205.983 111.141ZM207.401 109.563L208.201 114.403L210.174 114.077L209.374 109.237L207.401 109.563ZM208.74 113.346C208.491 113.47 208.125 113.611 207.62 113.762L208.195 115.678C208.756 115.509 209.243 115.33 209.634 115.134L208.74 113.346ZM207.62 113.762C207.137 113.907 206.581 114.031 205.949 114.133L206.265 116.107C206.967 115.995 207.611 115.853 208.195 115.678L207.62 113.762ZM205.903 114.141C205.3 114.267 204.639 114.369 203.921 114.446L204.134 116.434C204.908 116.351 205.635 116.24 206.311 116.099L205.903 114.141ZM203.921 114.446C203.209 114.522 202.498 114.56 201.787 114.56V116.56C202.57 116.56 203.352 116.518 204.134 116.434L203.921 114.446ZM201.787 114.56C199.99 114.56 198.467 114.294 197.196 113.79L196.459 115.65C198.014 116.266 199.798 116.56 201.787 116.56V114.56ZM197.202 113.793C195.929 113.279 194.89 112.592 194.064 111.743L192.63 113.137C193.671 114.208 194.952 115.041 196.453 115.647L197.202 113.793ZM194.084 111.763C193.276 110.884 192.665 109.847 192.254 108.638L190.36 109.282C190.856 110.74 191.605 112.022 192.611 113.117L194.084 111.763ZM192.26 108.655C191.868 107.43 191.667 106.094 191.667 104.64H189.667C189.667 106.279 189.893 107.823 190.355 109.265L192.26 108.655ZM205.666 102.307C205.634 101.711 205.524 101.129 205.336 100.564L203.439 101.196C203.57 101.591 203.647 101.995 203.669 102.413L205.666 102.307ZM205.351 100.612C205.179 99.9931 204.883 99.4353 204.466 98.9492L202.948 100.251C203.171 100.511 203.329 100.807 203.424 101.148L205.351 100.612ZM204.494 98.9822C204.098 98.4785 203.589 98.083 202.994 97.7856L202.1 99.5744C202.465 99.757 202.73 99.9749 202.921 100.218L204.494 98.9822ZM203.015 97.7962C202.376 97.4578 201.629 97.32 200.827 97.32V99.32C201.412 99.32 201.812 99.4222 202.079 99.5638L203.015 97.7962ZM200.827 97.32C200.042 97.32 199.308 97.4614 198.66 97.7856L199.554 99.5744C199.866 99.4186 200.279 99.32 200.827 99.32V97.32ZM198.701 97.7662C198.095 98.0357 197.571 98.4155 197.148 98.9092L198.666 100.211C198.883 99.9579 199.16 99.751 199.513 99.5938L198.701 97.7662ZM197.148 98.9092C196.743 99.3812 196.433 99.927 196.209 100.534L198.086 101.226C198.235 100.82 198.431 100.485 198.666 100.211L197.148 98.9092ZM196.199 100.564C196.021 101.097 195.888 101.644 195.799 102.204L197.775 102.516C197.846 102.063 197.954 101.623 198.096 101.196L196.199 100.564ZM196.787 103.36H204.667V101.36H196.787V103.36ZM227.707 99.24L227.464 100.21L228.478 100.464L228.687 99.4392L227.707 99.24ZM225.827 98.84L225.61 99.8162L225.627 99.82L225.644 99.8233L225.827 98.84ZM222.147 98.72L222.251 99.7145L222.273 99.7122L222.295 99.7089L222.147 98.72ZM220.987 98.92L220.699 97.9622L219.987 98.176V98.92H220.987ZM220.987 115V116H221.987V115H220.987ZM215.027 115H214.027V116H215.027V115ZM215.027 95.08L214.696 94.1361L214.027 94.3705V95.08H215.027ZM218.787 94.04L219.004 95.0163L219.017 95.0132L218.787 94.04ZM224.827 93.6L224.71 94.5931L224.739 94.5966L224.768 94.5983L224.827 93.6ZM226.187 93.76L226.013 94.7448L226.041 94.7498L226.07 94.7532L226.187 93.76ZM227.547 94L227.318 94.9734L227.345 94.9799L227.373 94.9848L227.547 94ZM228.707 94.32L229.687 94.5192L229.85 93.7132L229.091 93.3969L228.707 94.32ZM227.949 98.2699C227.39 98.1302 226.743 97.9927 226.009 97.8567L225.644 99.8233C226.35 99.954 226.956 100.083 227.464 100.21L227.949 98.2699ZM226.043 97.8638C225.244 97.6862 224.398 97.6 223.507 97.6V99.6C224.269 99.6 224.969 99.6738 225.61 99.8162L226.043 97.8638ZM223.507 97.6C223.067 97.6 222.561 97.6466 221.998 97.7311L222.295 99.7089C222.799 99.6334 223.199 99.6 223.507 99.6V97.6ZM222.042 97.7255C221.515 97.7809 221.056 97.8553 220.699 97.9622L221.274 99.8778C221.451 99.8247 221.765 99.7657 222.251 99.7145L222.042 97.7255ZM219.987 98.92V115H221.987V98.92H219.987ZM220.987 114H215.027V116H220.987V114ZM216.027 115V95.08H214.027V115H216.027ZM215.357 96.0239C216.377 95.6667 217.591 95.3301 219.003 95.0162L218.57 93.0638C217.102 93.3899 215.809 93.7466 214.696 94.1361L215.357 96.0239ZM219.017 95.0132C220.395 94.6873 221.944 94.52 223.667 94.52V92.52C221.816 92.52 220.111 92.6994 218.557 93.0668L219.017 95.0132ZM223.667 94.52C223.935 94.52 224.28 94.5426 224.71 94.5931L224.943 92.6068C224.466 92.5507 224.038 92.52 223.667 92.52V94.52ZM224.768 94.5983C225.182 94.6226 225.597 94.6714 226.013 94.7448L226.36 92.7752C225.869 92.6886 225.378 92.6307 224.885 92.6017L224.768 94.5983ZM226.07 94.7532C226.485 94.802 226.9 94.8753 227.318 94.9734L227.776 93.0266C227.286 92.9114 226.795 92.8247 226.303 92.7668L226.07 94.7532ZM227.373 94.9848C227.776 95.0559 228.088 95.1455 228.322 95.2431L229.091 93.3969C228.685 93.2279 228.224 93.1041 227.72 93.0152L227.373 94.9848ZM227.727 94.1208L226.727 99.0408L228.687 99.4392L229.687 94.5192L227.727 94.1208Z" fill="black" mask="url(#path-3-outside-1_3_15)"/>
</svg>
