<svg width="534" height="689" viewBox="0 0 534 689" fill="none" xmlns="http://www.w3.org/2000/svg">
<ellipse cx="267" cy="361.5" rx="123" ry="77.5" fill="black"/>
<ellipse cx="267" cy="362.5" rx="66" ry="28.5" fill="#1E1E1E"/>
<path d="M33.6667 567.333L46.3334 592.667C52.5176 605.062 62.0283 615.493 73.8018 622.793C85.5753 630.092 99.1473 633.973 113 634C128.693 634.039 143.998 629.132 156.744 619.977C169.489 610.822 179.026 597.884 184 583L267 334L350 85C354.974 70.1165 364.511 57.1784 377.256 48.0233C390.002 38.8682 405.307 33.9615 421 34C434.853 34.0272 448.425 37.9076 460.198 45.2071C471.972 52.5067 481.482 62.9376 487.667 75.3333L500.333 100.667" stroke="black" stroke-width="66.6667" stroke-linecap="round" stroke-linejoin="round"/>
</svg>
